<?xml version="1.0" encoding="utf-8"?>
<!-- Generator: Adobe Illustrator 25.0.1, SVG Export Plug-In . SVG Version: 6.00 Build 0)  -->
<svg version="1.1" id="Layer_1" xmlns="http://www.w3.org/2000/svg" xmlns:xlink="http://www.w3.org/1999/xlink" x="0px" y="0px"
	 viewBox="0 0 40 40" style="enable-background:new 0 0 40 40;" xml:space="preserve">
<style type="text/css">
	.st0{fill:#125088;}
</style>
<path class="st0" d="M20,13.4c2.8,0,5.1-2.3,5.1-5.1c0-2.8-2.3-5.1-5.1-5.1s-5.1,2.3-5.1,5.1C14.9,11.2,17.2,13.4,20,13.4z"/>
<path class="st0" d="M20,13.2c-4.7,0-8.5,3.8-8.5,8.5v5.1c0,0.9,0.8,1.7,1.7,1.7h1.7V35c0,0.9,0.8,1.7,1.7,1.7h6.8
	c0.9,0,1.7-0.8,1.7-1.7v-6.8h1.7c0.9,0,1.7-0.8,1.7-1.7v-5.1C28.5,17,24.3,13.2,20,13.2z"/>
</svg>
