<?xml version="1.0" encoding="utf-8"?>
<!-- Generator: Adobe Illustrator 25.2.1, SVG Export Plug-In . SVG Version: 6.00 Build 0)  -->
<svg version="1.1" id="Layer_1" xmlns="http://www.w3.org/2000/svg" xmlns:xlink="http://www.w3.org/1999/xlink" x="0px" y="0px"
	 viewBox="0 0 17 33.5" style="enable-background:new 0 0 17 33.5;" xml:space="preserve">
<style type="text/css">
	.st0{fill:#125088;}
</style>
<g>
	<path class="st0" d="M8.5,10.2c2.8,0,5.1-2.3,5.1-5.1S11.3,0,8.5,0S3.4,2.3,3.4,5.1C3.4,8,5.7,10.2,8.5,10.2z"/>
	<path class="st0" d="M8.5,10C3.8,10,0,13.8,0,18.5v5.1c0,0.9,0.8,1.7,1.7,1.7h1.7v6.5c0,0.9,0.8,1.7,1.7,1.7h6.8
		c0.9,0,1.7-0.8,1.7-1.7V25h1.7c0.9,0,1.7-0.8,1.7-1.7v-5.1C17,13.8,12.8,10,8.5,10z"/>
</g>
</svg>
