<svg id="Layer_1" data-name="Layer 1" xmlns="http://www.w3.org/2000/svg" viewBox="0 0 526.84 140.21"><defs><style>.cls-1{font-size:36.17px;font-family:Gotham-Medium, Gotham;font-weight:500;}.cls-1,.cls-5{fill:#fff;}.cls-2{letter-spacing:-0.04em;}.cls-3{letter-spacing:-0.1em;}.cls-4{letter-spacing:-0.04em;}.cls-6{fill:#11315d;}</style></defs><title>inverted tracking</title><text class="cls-1" transform="translate(127.29 84.82)">G<tspan class="cls-2" x="28.36" y="0">L</tspan><tspan x="49.3" y="0">OBAL HEA</tspan><tspan class="cls-3" x="248.29" y="0">L</tspan><tspan x="267.06" y="0">TH</tspan><tspan x="0" y="38.96">SECURITY TR</tspan><tspan class="cls-4" x="248.86" y="38.96">A</tspan><tspan x="275.88" y="38.96">CKING</tspan></text><path class="cls-5" d="M154.05,37.2a20.69,20.69,0,0,1-8.3,1.58,19.57,19.57,0,0,1-7.28-1.31,16.89,16.89,0,0,1-5.64-3.65,16.52,16.52,0,0,1-3.68-5.55,18.3,18.3,0,0,1-1.31-7v-.1a17.56,17.56,0,0,1,1.33-6.84,17.77,17.77,0,0,1,3.73-5.6,17.5,17.5,0,0,1,5.64-3.79,18,18,0,0,1,7.16-1.39,25.21,25.21,0,0,1,4.16.32,19.66,19.66,0,0,1,3.48.9,15.89,15.89,0,0,1,3,1.46,22.24,22.24,0,0,1,2.72,2l-4.72,5.7a18.93,18.93,0,0,0-1.94-1.46,13.06,13.06,0,0,0-2-1.07,11.32,11.32,0,0,0-2.27-.68,13,13,0,0,0-2.67-.25,8.66,8.66,0,0,0-3.82.86,10.24,10.24,0,0,0-3.12,2.29A10.46,10.46,0,0,0,136.43,17a11,11,0,0,0-.76,4.12v.09a11.85,11.85,0,0,0,.76,4.32,10,10,0,0,0,2.14,3.44,9.67,9.67,0,0,0,3.26,2.27A10.39,10.39,0,0,0,146,32,11.83,11.83,0,0,0,153.05,30V25.05h-7.54V18.58H160.3v14.8A25.25,25.25,0,0,1,154.05,37.2Z"/><path class="cls-5" d="M168.72,38.2V4.12h25.65v6.67H176.12V17.7h16.06v6.67H176.12v7.16h18.5V38.2Z"/><path class="cls-5" d="M235.89,28a17.38,17.38,0,0,1-9.51,9.39,18.7,18.7,0,0,1-7.28,1.39,18.44,18.44,0,0,1-7.25-1.39,17.75,17.75,0,0,1-5.72-3.75,16.66,16.66,0,0,1-3.75-5.54A17.56,17.56,0,0,1,201,21.26v-.1a17.23,17.23,0,0,1,1.37-6.84,17.38,17.38,0,0,1,9.51-9.39,19.68,19.68,0,0,1,14.53,0,18,18,0,0,1,5.72,3.74,17,17,0,0,1,3.75,5.55,17.56,17.56,0,0,1,1.34,6.84v.1A17.23,17.23,0,0,1,235.89,28Zm-6.47-6.84a11.23,11.23,0,0,0-.76-4.14,10.38,10.38,0,0,0-13.72-5.74,9.37,9.37,0,0,0-3.21,2.29,10.76,10.76,0,0,0-2.1,3.38,11.2,11.2,0,0,0-.75,4.11v.1a11.43,11.43,0,0,0,.75,4.14A10.22,10.22,0,0,0,215,31a9.85,9.85,0,0,0,4.16.85,10.22,10.22,0,0,0,4.13-.83,9.3,9.3,0,0,0,3.24-2.29,10.73,10.73,0,0,0,2.09-3.38,11,11,0,0,0,.76-4.11Z"/><path class="cls-5" d="M263.42,38.2l-7.3-10.91h-5.89V38.2h-7.49V4.12h15.57q6.09,0,9.47,3a10.45,10.45,0,0,1,3.38,8.28v.1a10.68,10.68,0,0,1-2,6.74A11.72,11.72,0,0,1,263.86,26l8.32,12.17Zm.15-22.44A4.33,4.33,0,0,0,262,12.11a6.88,6.88,0,0,0-4.33-1.22h-7.45v9.78h7.6a6.22,6.22,0,0,0,4.26-1.31,4.49,4.49,0,0,0,1.48-3.5Z"/><path class="cls-5" d="M303.84,37.2a20.6,20.6,0,0,1-8.29,1.58,19.57,19.57,0,0,1-7.28-1.31,17,17,0,0,1-5.65-3.65A16.65,16.65,0,0,1,279,28.27a18.3,18.3,0,0,1-1.31-7v-.1A17.56,17.56,0,0,1,279,14.32a17.77,17.77,0,0,1,3.73-5.6,17.5,17.5,0,0,1,5.64-3.79,18,18,0,0,1,7.16-1.39,25.21,25.21,0,0,1,4.16.32,19.66,19.66,0,0,1,3.48.9,15.89,15.89,0,0,1,3,1.46,22.24,22.24,0,0,1,2.72,2l-4.72,5.7a20.08,20.08,0,0,0-1.94-1.46,13.06,13.06,0,0,0-2-1.07,11.32,11.32,0,0,0-2.27-.68,13.06,13.06,0,0,0-2.68-.25,8.72,8.72,0,0,0-3.82.86,10.32,10.32,0,0,0-3.11,2.29A10.46,10.46,0,0,0,286.23,17a11,11,0,0,0-.76,4.12v.09a11.85,11.85,0,0,0,.76,4.32,10,10,0,0,0,2.14,3.44,9.67,9.67,0,0,0,3.26,2.27,10.39,10.39,0,0,0,4.16.81A11.83,11.83,0,0,0,302.85,30V25.05H295.3V18.58h14.8v14.8A25.14,25.14,0,0,1,303.84,37.2Z"/><path class="cls-5" d="M318.52,38.2V4.12h25.65v6.67H325.92V17.7H342v6.67H325.92v7.16h18.5V38.2Z"/><path class="cls-5" d="M367.78,11V38.2h-7.5V11H349.91V4.12h28.24V11Z"/><path class="cls-5" d="M417.25,28a17.74,17.74,0,0,1-3.78,5.6,17.51,17.51,0,0,1-5.74,3.79,19.68,19.68,0,0,1-14.53,0,18,18,0,0,1-5.72-3.75,16.79,16.79,0,0,1-3.74-5.54,17.38,17.38,0,0,1-1.34-6.84v-.1a17.22,17.22,0,0,1,1.36-6.84,17.88,17.88,0,0,1,3.77-5.6,17.56,17.56,0,0,1,5.75-3.79,19.68,19.68,0,0,1,14.53,0,18,18,0,0,1,5.71,3.74,16.81,16.81,0,0,1,3.75,5.55,17.56,17.56,0,0,1,1.34,6.84v.1A17.22,17.22,0,0,1,417.25,28Zm-6.48-6.84A11.43,11.43,0,0,0,410,17a10.25,10.25,0,0,0-5.43-5.72,10.08,10.08,0,0,0-4.14-.85,10.23,10.23,0,0,0-4.16.83,9.37,9.37,0,0,0-3.21,2.29A10.73,10.73,0,0,0,391,17a11,11,0,0,0-.76,4.11v.1A11.23,11.23,0,0,0,391,25.3a10.21,10.21,0,0,0,2.14,3.41A10.39,10.39,0,0,0,396.39,31a9.92,9.92,0,0,0,4.16.85,10.31,10.31,0,0,0,4.14-.83,9.49,9.49,0,0,0,3.24-2.29A10.73,10.73,0,0,0,410,25.37a11.2,11.2,0,0,0,.75-4.11Z"/><path class="cls-5" d="M460.32,38.44H453.8l-7.7-22.29-7.69,22.29h-6.52L420.26,4.12h8l7.06,23.08L443,4h6.42l7.65,23.17,7.05-23.08H472Z"/><path class="cls-5" d="M502.62,38.2l-16.5-21.66V38.2h-7.4V4.12h6.91l16,21v-21H509V38.2Z"/><polygon class="cls-5" points="52.84 63.63 0 94.21 0 30.58 52.84 0 52.84 63.63"/><polygon class="cls-5" points="52.68 63.63 105.52 94.21 105.52 30.58 52.68 0 52.68 63.63"/><path class="cls-6" d="M48.09,28.64c0,.07.09.05.1.1s-.21.06-.24-.06,0-.05,0-.06.05,0,.06,0,0-.07,0-.07S48.11,28.56,48.09,28.64Zm-22-1.09s-.07.15-.1.06-.28-.09-.32-.08.26-.24.26-.27-.08,0-.08-.06.16-.1.12-.14a.31.31,0,0,0-.28,0,.36.36,0,0,1-.3.08.56.56,0,0,0-.32.07c-.07,0-.17.17-.15.22s.26,0,.28.09,0,.29-.15.29-.17-.16-.26-.12-.23.14-.09.23a3.49,3.49,0,0,1,.58.29c.13.12.11.17.28.2s.11-.16.22-.22.45-.33.31-.41.12-.05.08-.1S26.12,27.59,26.08,27.55Zm21.71,1.14s0,.17,0,.16,0-.18,0-.2-.08,0-.09,0S47.79,28.67,47.79,28.69ZM30.8,29c.18.17.35.1.4,0s.15-.25.05-.41S30.62,28.79,30.8,29Zm1.35-2.24c0-.15-.34-.06-.49,0s-.3-.22-.42-.3a.79.79,0,0,0-.5-.06,1.32,1.32,0,0,0-.29.13c-.07.06-.09.24-.21.22a.22.22,0,0,0-.26.1c-.07.12-.16.1-.11,0a.33.33,0,0,0,0-.32c-.06-.1-.11-.09-.16-.16s0-.19-.14-.19a.59.59,0,0,0-.28.06,2.78,2.78,0,0,1-.51.31c-.11,0,.14-.2,0-.21a1.49,1.49,0,0,0-.64.24,1.19,1.19,0,0,0-.39.55,1.48,1.48,0,0,0-.12.41c0,.12,0,.3.09.32s.54,0,.56.06-.49,0-.49.11.22.22.33.25.13,0,.25-.09.08,0,.16.1.16,0,.27,0a4,4,0,0,1,.56-.11,1,1,0,0,0,.19,0c.08,0,0-.09.1-.09s.15.09.19,0S29.6,28,29.69,28s.6,0,.69-.11-.17-.1-.14-.19.16,0,.22.08.12-.06.15,0,0,.21.06.15.45.06.44.15-.28.23-.19.31.17-.13.27-.16.1-.09.18,0,.31.08.39.2.15.22.2.32,0,.06-.08.17a6.47,6.47,0,0,0-.4.56c0,.1.25.07.18.19s-.21.11-.33.2-.45,0-.52.12a1.69,1.69,0,0,0-.21.31c-.06.09.06.23.17.19a.64.64,0,0,0,.35-.17c.08-.11.23,0,.31-.08s0-.06,0-.12.06.1.14.06a.21.21,0,0,1,.29.12c.06.16.26,0,.3.1s-.19.1-.16.16.23,0,.28,0-.07.06,0,.07h.35c.1,0,0,.12.16.11a4,4,0,0,0,.69,0c.1,0,0-.18,0-.21s-.2-.1-.27-.12-.19,0-.23,0-.15-.19-.14-.22.21.05.24,0-.08-.12,0-.11.34.13.42.16.22.18.27.15-.06-.1,0-.13.06,0,.08,0-.09-.22-.06-.26.11.15.12.1a.61.61,0,0,0,0-.31c0-.07-.15,0-.17-.12s0-.15-.14-.21-.16.06-.2.08-.07-.18-.1-.27-.12,0-.15,0-.08-.15-.07-.18.17,0,.18,0-.13-.14-.07-.22.11-.12.21-.08.14.14.24.16.16-.19.24-.14-.17.19-.15.25a.65.65,0,0,0,.44.25c.1,0-.07-.39,0-.4s.37-.11.4-.21-.17,0-.16-.07.19,0,.24-.08,0-.31-.08-.33-.31.11-.38.11.13-.17.06-.18-.24,0-.33-.06a.41.41,0,0,0-.28-.13c-.15,0-.66-.08-.74-.12s.17,0,.17-.09,0-.15,0-.2.26,0,.28,0-.11-.13-.19-.08-.22.05-.23,0,.26-.15.32-.2S33,27,32.93,27s-.2.29-.23.24a.22.22,0,0,0-.15-.08s.37-.16.29-.26-.57-.21-.64-.09-.19.31-.28.17S32.19,26.87,32.15,26.72Zm-7.59-.53a.19.19,0,0,0-.14.1c0,.05.23-.11.16,0s.08.14.22.08a1.91,1.91,0,0,1,.46-.17c.08,0-.09.11-.1.09s.05,0,0,0-.16.08-.14.1.16,0,.17,0-.11,0-.11.05.11.09.18.08,0-.08.12-.08.34-.06.38-.13-.11,0-.09-.07a.53.53,0,0,0,.05-.15s.07.06.08,0,0-.13,0-.19,0-.15,0-.21a.19.19,0,0,0-.11-.16c-.07,0-.11-.07-.21,0s-.28.06-.43.13.13.11.15.14-.09,0-.09,0,.18.21.13.16-.53-.27-.53-.09.17-.08.12,0,0,.1,0,.13S24.62,26.19,24.56,26.19Zm.14,3.29c0-.09.14-.19.22-.11s0-.17.08-.05.18-.17.07-.22-.38,0-.49-.1-.28,0-.34-.15,0-.14,0-.3a1.43,1.43,0,0,0-.37-.62c-.15-.07-.18-.12-.25,0s-.22-.06-.24,0a.4.4,0,0,0,0,.17c0,.06.06.11.07.19s.17.3.15.38-.13.15-.17,0-.1-.24-.15-.38-.41-.12-.46-.06.21.15.19.19-.2-.06-.23,0-.13.16-.18.14.11-.11.06-.15-.32-.15-.4-.11-.09.17-.14.19-.2.08-.19.05.21-.27,0-.32-.16,0-.32.1a3.87,3.87,0,0,0-.65.51c-.08.11.13,0,.07.07s-.23.28-.18.35.18,0,.22,0-.06.08,0,.1.43-.14.45-.1-.45.26-.44.33.12.14.26.11l.52-.11a2.35,2.35,0,0,1,.7,0c.18,0-.08.1-.16.14s-.27,0-.41,0-.59,0-.63.31.67.19.8.2,0,.36.26.26.51-.13.7-.2.26-.19.38-.25a.47.47,0,0,0,.22-.14c.06-.07.09-.17.16-.16s-.06.09,0,.11h.31c.06,0-.1.06,0,.06a3,3,0,0,0,.52,0c.1,0,.25-.09.24-.18s0-.09-.06-.17-.26.17-.26.16a1.12,1.12,0,0,0-.05-.22s.07,0,.08,0S24.69,29.56,24.7,29.48Zm.75.11c0,.05.08.06.09.07s0-.09.06-.06a.13.13,0,0,0,.1.07s0-.1,0-.05a.5.5,0,0,0,.39.08c.11-.05.34-.18.32-.28s-.33-.2-.42-.27-.17-.1-.25,0a.21.21,0,0,0-.07.25c0,.05,0,0-.05,0S25.46,29.54,25.45,29.59ZM47.9,28.5s0,0,0,0,0,.05,0,0,.11-.12.14-.13,0,0,0,0,.13-.18,0-.14S47.79,28.41,47.9,28.5ZM30.08,30.91c0-.12-.35,0-.32-.06s-.22-.35-.37-.37-.15,0-.24,0a.12.12,0,0,0-.19,0s-.1-.05-.05-.08.14-.31,0-.21-.15.31-.18.44a.85.85,0,0,0,0,.24c0,.09,0,.12,0,.19s-.22.27-.21.31.27-.16.33-.14.05.31.13.26.15-.27.24-.3.2-.34.24-.27.35.28.48.19S30.05,31,30.08,30.91Zm-2.95-4.73c.08.14.22-.12.28-.09s.07.11.18.09A.25.25,0,0,0,27.8,26c0-.07.05.07.08,0s0-.14,0-.14,0,.2.14.17.34-.08.42-.08-.06-.16,0-.09.26-.05.31-.07.3,0,.36-.09-.09-.13,0-.18.09.15.17.16a.42.42,0,0,0,.27,0c.08,0,.31-.05.33-.17s.16-.16.19-.22-.15,0-.18-.05.23-.07.13-.19a.9.9,0,0,0-.76-.06c-.16.12-.26.06-.38.13a4,4,0,0,1-.36.21c-.08,0,.11,0,0,.05a2.23,2.23,0,0,0-.44,0c-.08,0-.09.11-.16.1a1,1,0,0,1-.21-.07,1.1,1.1,0,0,1-.31-.12s.27-.12.25-.16-.15,0-.22,0-.05-.07-.15-.11-.28.1-.41.12-.21-.1-.36-.08a1,1,0,0,0-.48.07c-.16.09-.15.21,0,.32s.28,0,.43,0,.22-.13.35,0,.22.16.16.33S27,26,27.13,26.18Zm4.26,2.39c-.07.13.3.1.3,0S31.46,28.44,31.39,28.57ZM27.7,22s-.35.28-.27.37.45-.1.59-.14.56-.3.58-.29a1.91,1.91,0,0,1-.48.3c-.1,0-.49.17-.46.22a.58.58,0,0,0,.54-.08,1.56,1.56,0,0,1,.54-.33s-.5.34-.45.4.36-.06.48-.06.15-.07.17-.16.15-.12.18-.14-.08.1,0,.09.26-.16.29-.16-.24.24-.2.24a2.26,2.26,0,0,0,.38-.17c.1,0,.26-.05.35-.17a2.94,2.94,0,0,1,.57-.49c.05,0-.24.27-.27.33s.29,0,.15.07-1,.44-1.18.58.45.25.38.27-.42-.25-.6-.18-.43,0-.6.17.2.32.35.32.51.34.4.38-.74,0-.89.34,0,.21.19.25.33-.37.35-.32-.24.43,0,.54.5-.42.52-.37-.39.55-.59.5-.16-.18-.3-.17-.34,0-.39.14.24.11.25.15-.27.2-.34.26-.2.08-.22.16,0,0,0,.17.19-.17.22-.1.22.08.28,0,.13.06.24,0,.21,0,.32-.07.12-.18.25-.14.13-.11.19-.09.23,0,.29-.05.11,0,.21-.06,0,.22,0,.22a2.67,2.67,0,0,0,.39-.22c.06,0,.07-.12.1-.14s.07.05.12,0,.14-.06.14-.12,0-.15,0-.19a.12.12,0,0,0-.17,0c-.05,0-.1.13-.14,0s.15-.28.23-.38-.09-.17,0-.24.23,0,.33,0A.77.77,0,0,0,31,23.2c0-.09-.24,0-.21-.1s.33,0,.39-.17-.45-.07-.43-.1.37,0,.44-.13-.56,0-.5,0a7.94,7.94,0,0,0,.81-.32c.1-.06-.09-.12,0-.15s.24,0,.34,0a1.23,1.23,0,0,0,.29-.33c0-.06-.33.1-.27.05s.35-.17.49-.24a5.39,5.39,0,0,0,.45-.4c.13-.11.8-.54.69-.62s-1.1.55-1.19.53.66-.36.7-.41-.49.08-.39,0,.78-.26,1-.35.74-.46.71-.58-.66,0-.85,0-.66.26-.75.28.45-.31.35-.33a4.55,4.55,0,0,0-.81.1,5.09,5.09,0,0,0-.77.33c-.12.06.16.16.07.17s-.29-.18-.43-.13a4.69,4.69,0,0,0-.61.14c-.07.05.38.19.33.21a2.07,2.07,0,0,1-.43-.06.93.93,0,0,0-.41,0c-.09.06-.06.11-.15.15s-.2.05-.29.09-.3.23-.27.31.72.18.68.22a5,5,0,0,1-.78,0c-.15,0-.28-.11-.39-.14a.4.4,0,0,0-.31,0c-.05,0,.1.11,0,.14a1.51,1.51,0,0,1-.3.1c-.05,0,.32.06.17.05a2.1,2.1,0,0,0-.76.35c-.13.09-.59.13-.59.27s.29.07.36.11S27.66,22,27.7,22Zm-2.78,3s-.19-.05-.28,0,0,.14.05.1S24.92,25.09,24.92,25.05Zm5.29,6.85c.08,0,.23-.38.08-.39s-.17.14-.19.21S30.13,31.91,30.21,31.9ZM47.29,31s-.16,0,0,.1.58-.29.68-.39.12,0,.16-.09,0-.17.08-.28-.09-.23-.08-.31.23-.26.17-.33a1.29,1.29,0,0,1-.16-.18c-.05-.08-.17.08-.22.06s.1,0,0-.07-.38.22-.38.32.15,0,.14.05-.1.13-.17.13-.12,0-.18,0a.13.13,0,0,0,0,.19c0,.07-.1.12-.09.17s.25,0,.25,0-.2.25-.19.27.26-.11.26-.08-.2.06-.22.13-.12.12-.14.14.1,0,.1,0-.12.07-.1.09S47.25,31,47.29,31Zm-18.06.71c0,.05-.05.12.08.11s.45-.34.41-.45-.07,0-.14,0-.23.12-.29.18S29.2,31.69,29.23,31.75Zm-2.47-5.62a.25.25,0,0,0-.32-.21c-.16,0-.47.25-.41.4s.29.13.44.14A.28.28,0,0,0,26.76,26.13ZM24,24.64s.2-.18.25-.12-.08,0,0,.08.13-.11.17,0-.34,0-.35.23.35-.05.48,0a1.36,1.36,0,0,0,.35,0c.15,0,.07,0,.21.15s.41-.13.29-.26-.11,0-.12-.16,0,0,0-.14-.21.12-.26,0-.26,0-.37,0-.17-.23-.35-.15-.35.16-.36.27.16-.06.18,0S23.93,24.63,24,24.64Zm.09,1c.07.05.1-.08.06-.13L24,25.38s-.19-.09-.22,0a.25.25,0,0,0,.06.2C23.85,25.59,24,25.57,24.05,25.62Zm1.35-2c-.11-.19-.4,0-.28.14S25.51,23.78,25.4,23.58Zm.47,1c.06,0-.2.07-.17.1a.35.35,0,0,0,.19.1.59.59,0,0,0,.2-.09c.07,0,.23-.08.25-.16a.5.5,0,0,0,0-.21c0-.05-.18,0-.26,0a1.9,1.9,0,0,0-.22-.09c-.13,0-.38,0-.29.16s-.08,0,0,.07S25.82,24.58,25.87,24.62Zm-3.56.89c-.15,0-.32.2-.24.31a.24.24,0,0,0,.26.08,2.64,2.64,0,0,0,.38-.18c.1,0,.05-.09.07-.15s-.17,0-.17,0,.33-.12.25-.19S22.46,25.48,22.31,25.51Zm.47.86c0,.07.23.07.23.12s-.16.08-.15.11.27,0,.26.1-.17.12-.25.12-.27.13-.32,0-.11-.1-.19-.09.1,0,0,0-.2-.19-.33-.13-.19,0-.3,0a.34.34,0,0,0-.3.13c0,.08.29.06.24.05s-.4,0-.43.13,0,0,0,.11.41-.09.39-.07-.52.09-.5.24.47-.14.45-.11-.55.23-.53.33.26,0,.3,0,0,.07,0,.06.14.08.16,0,0-.05.14,0,.12-.26.2-.29,0,.13.07.19.24-.16.27-.11.32-.11.32-.07-.7.35-.66.43.52,0,.66-.13a2.85,2.85,0,0,1,.5-.31c.12-.09.18,0,.26,0s.06-.09.14-.12.15,0,.26-.06a.36.36,0,0,0,.17-.31c0-.14,0-.26-.18-.23s-.08.22-.12.23-.09-.12-.19-.11-.08-.1-.15-.17-.13-.33-.24-.21A1.31,1.31,0,0,0,22.78,26.37Zm3.12-2.9c0,.17.42.13.48.09s-.16.14-.22.13-.05.12,0,.1.08.09.14,0,.11-.12.17-.11-.05,0,0,.07.11-.09.18-.1,0,0,.08-.06a.71.71,0,0,1,.42-.06s-.3.09-.28.13.49-.11.44-.09a5,5,0,0,0-.83.37c-.05.09.24,0,.25.05s-.16,0-.13.07.41,0,.45,0-.3,0-.25.12.5.09.59,0-.11-.05-.07-.09.25,0,.28.05-.17-.24-.13-.24.21.19.3.19,0-.28,0-.26c.21.08.1-.25.18-.31s0,.21.08.19.11-.2.15-.24.43-.19.45-.28-.16-.12-.19-.17-.05.22-.05.08-.36.1-.31,0,0-.25-.09-.31-.11-.25-.25-.12.13.1.07.16a.16.16,0,0,1-.21,0c0-.06,0-.19-.09-.14a.26.26,0,0,1-.34,0,.89.89,0,0,0-.44-.25c-.15,0-.35,0-.38.11s.31-.08.28,0-.5.19-.52.3.29,0,.25,0-.4.15-.35.25-.19.08-.16.13.22,0,.26,0-.07,0,0,0,.25-.09.28-.07-.08.06-.08.08.08,0,.06.06-.06-.05-.12,0S25.94,23.3,25.9,23.47Zm-1.72,2.69c0,.1.46-.05.39-.15S24.16,26.06,24.18,26.16Zm-3.13.72c-.06,0-.4.24-.36.34s.2,0,.24,0S21.12,26.91,21.05,26.88Zm27,1.95s0,0,0,0,0,0,0,0S48.07,28.83,48.06,28.83Zm-24.43-1.1c0,.09.16,0,.21.12s.15.12.22.07a.34.34,0,0,0,.13-.28c0-.09-.07-.13-.18-.14S23.61,27.64,23.63,27.73Zm.72-1.07c0-.1-.14-.17-.26,0S24.33,26.77,24.35,26.66Zm-.25-.74a.19.19,0,0,0,.07.13s.3-.06.3-.12-.1,0-.15-.07S24.11,25.88,24.1,25.92Zm2.56-1.08c0-.05.16-.16.09-.19s-.65.06-.67.22S26.62,24.89,26.66,24.84ZM30,26.47c.06.06.08.05.17.07a1,1,0,0,0,.42-.2c.08-.07.35,0,.35-.1s-.36-.24-.47-.26-.16,0-.26,0S30,26,29.91,26s-.16.27,0,.31S29.91,26.42,30,26.47Zm-2.71-1.86c-.07.12.07.14.14.14s.21,0,.23-.11S27.35,24.48,27.27,24.61Zm.18.39c-.08.09.14.16.19.12s-.07,0,0-.1S27.53,24.91,27.45,25Zm57.09,4.69a1.44,1.44,0,0,0,.69.13c.12,0,.07-.11.07-.16s-.11-.06-.17-.11-.26-.06-.32-.08,0,0,0-.1-.29,0-.33-.09-.28-.2-.27,0S84.41,29.57,84.54,29.69ZM61.06,23.38a1.63,1.63,0,0,0,.52.46c.15.07.68.37.7.23s-.46-.54-.38-.83a1,1,0,0,1,.52-.54c.2-.12.2-.17.36-.26s.24-.06.44-.11a2.21,2.21,0,0,1,.67-.14l.92,0c.24,0,.73.14.81-.14s-.43-.37-.67-.31a2,2,0,0,1-.84,0,3.18,3.18,0,0,0-.73-.12,2.39,2.39,0,0,0-.71,0,4.66,4.66,0,0,0-.59.28l-.41.25c-.13.08,0,.17-.06.28s-.21.08-.31.12-.06.13-.12.23-.21,0-.24.14A.48.48,0,0,0,61.06,23.38Zm1.23-4.56c0-.08-.43-.13-.47-.06s.26.13.29.13S62.33,18.89,62.29,18.82Zm1.17-.25s-.15-.16-.13-.19.38.06.36,0a.69.69,0,0,0-.45-.1c-.11.06-.45.1-.46.14s.29.14.35.16A.86.86,0,0,0,63.46,18.57Zm-.87,5.84c0,.07.29.46.42.39s-.23-.41-.28-.43S62.6,24.35,62.59,24.41Zm1.08-4.94s-.2-.11-.23-.09.07.11.09.12S63.66,19.52,63.67,19.47Zm-.42-.67c0-.07-.33-.2-.44-.25s-.47-.08-.48,0,.33.2.42.26S63.24,18.87,63.25,18.8Zm-2.45-.6s-.38,0-.34.1a1.56,1.56,0,0,0,.52.24c.08,0-.07-.15,0-.17s.64.1.68.05-.2-.2-.32-.21a.85.85,0,0,1-.45-.08,2,2,0,0,0-.8-.14c-.08,0,.22.13.27.16S60.77,18.16,60.8,18.2Zm-.72,6.08a.29.29,0,0,0,.38-.06.38.38,0,0,0-.29-.23C60,24,60,24.16,60.08,24.28ZM54,22.42s.43-.17.42-.24-.12.08-.15.11-.24,0-.23,0S53.93,22.42,54,22.42ZM22.34,25.3c.09,0,.09-.06.19-.08s.48,0,.42-.16-.33,0-.45,0a1.41,1.41,0,0,0-.47.3c0,.08,0,0,0,0S22.25,25.26,22.34,25.3Zm41-6.22c-.07,0-.66-.23-.66,0s.53.23.62.23,0-.08,0-.09.22.06.22,0A.46.46,0,0,0,63.37,19.08ZM82.2,28.83c.06.11.12.14.24.23s.18-.13.26-.08a.73.73,0,0,0,.48.09c.13,0,.07.18.15.18s.22,0,.27,0-.08-.18,0-.17.18.14.23.1.28,0,.22-.12a4.15,4.15,0,0,0-.63-.48c-.11-.11-.1-.12-.24-.16s0,.25-.1.22-.42-.52-.61-.45-.29.12-.35.27S82.14,28.72,82.2,28.83Zm-34.11.57s0-.11,0-.13-.09.07-.07.07S48.06,29.4,48.09,29.4Zm34.9.49c.08.12.34.27.43.22s-.07-.24-.14-.32-.2-.11-.26-.25-.06-.28-.24-.21,0,.24,0,.31-.32.07-.27.11S82.92,29.78,83,29.89ZM65.05,19.44c.13,0,.17-.13.13-.2s-.17-.07-.23-.07-.06.13-.13.12-.32-.13-.35-.06,0,.09.09.14S64.93,19.4,65.05,19.44Zm-1.39-.25c.07,0,.12,0,.19.12a.39.39,0,0,0,.46,0c.12-.11-.08-.3-.2-.32a1.55,1.55,0,0,0-.53,0C63.51,19.05,63.59,19.16,63.66,19.19ZM73.3,24c0,.14.47.12.6.1s.11.12.22.14l.42.07a.32.32,0,0,0,.26,0c.07-.05,0-.2-.09-.25a.62.62,0,0,1-.23-.27c0-.09-.22-.06-.27-.1s.17,0,.1-.07-.33-.18-.46-.07a2.65,2.65,0,0,0-.42.38C73.37,24,73.27,23.88,73.3,24Zm-1.72-1.59c.1.05.41,0,.49.21s.15.41.35.47a1.64,1.64,0,0,1,.55.26.61.61,0,0,0,.48.13c.1,0-.06-.2,0-.28s.15-.12.07-.24-.39-.09-.46-.11.23-.07.18-.13-.25,0-.3-.23.14-.15.17-.22-.3-.45-.44-.51-.08.06-.2.06a2.61,2.61,0,0,1-.39,0c-.13,0-.15.08-.21.17s-.23,0-.3,0a.3.3,0,0,0-.17.22C71.39,22.28,71.47,22.38,71.58,22.43Zm20,10.84c.07,0,.08,0,.17,0s.45,0,.49-.1S92.12,33,92,33l-.4-.1a.61.61,0,0,0-.34.08c-.07,0,0,.27,0,.3S91.49,33.26,91.57,33.27ZM52.77,22.8s-.15.12-.12.15.1-.08.11-.09S52.81,22.81,52.77,22.8Zm-.48.54s.12,0,.1-.07-.09,0-.1,0S52.27,23.32,52.29,23.34Zm.27-.41c-.05,0-.12.14-.11.16a.14.14,0,0,0,.13,0C52.64,23.09,52.61,22.93,52.56,22.93Zm-3.77,5s.11,0,.11-.05-.08,0-.09,0,0,0,0,0-.1,0-.1.07,0,0,0,0S48.78,27.93,48.79,27.93Zm5.41-5.67c.06,0,.11-.12.1-.13s-.08.06-.13,0-.15-.07-.17,0S54.14,22.29,54.2,22.26Zm-6.05,7s.08-.1.05-.12S48.13,29.29,48.15,29.3Zm4.43-6.14s-.17.07-.14.11S52.61,23.18,52.58,23.16Zm-4.26,6.16s0,.1,0,.09S48.35,29.3,48.32,29.32Zm-.09-.66s0,0,0,0,0,0,0,0-.08.14-.07.19-.16.1-.09.13,0,0,0,.09.13-.08.09-.1.18-.07.16-.14,0,0,0,0a.51.51,0,0,0-.13.31c0,.08,0,.11,0,.17s-.07.08,0,.12.08-.13.05-.17.1-.28.08-.22,0,.1.07,0,0,.07,0,.07-.06,0,0,.11a.15.15,0,0,1,0,.17c0,.08-.08.19,0,.23s0-.1,0-.07a.11.11,0,0,0,.12,0s.34-.16.29-.11-.08.34,0,.31,0,.26.06.29,0,0,0,0l-.06,0s0,.06,0,0a.59.59,0,0,0-.2.05s-.15-.08-.12,0a.22.22,0,0,1,0,.21s.14-.09.14,0a.43.43,0,0,1,0,.25c0,.07-.22.12-.25.17s0,.05,0,.07.18-.05.26,0-.06,0,0,0,.12,0,.17,0l.21-.12s0,.19-.12.2-.32,0-.32.18-.28.31-.24.36.31-.09.41-.15a1.2,1.2,0,0,1,.32-.17c.14,0,.13-.16.25-.17s.06.1.19.05a1.67,1.67,0,0,0,.42-.19c.18-.13-.15-.1-.13-.18s.25-.27.26-.5-.34,0-.34-.08a.37.37,0,0,0-.2-.26c-.09,0,.17.08.13,0s-.29-.27-.36-.47-.33-.25-.46-.28.16,0,.13-.12.28-.44.18-.56-.43.11-.54.15,0,0,0,0,.07-.1.07-.12-.1,0-.1,0,.06,0,.08,0,.26-.26.22-.33-.27.11-.32.11,0,0-.08,0-.07.05-.07.11-.06,0-.07,0l0,.06s.09.08.08.08-.14,0-.15,0,0,.1,0,.13,0,0-.06,0S48.2,28.66,48.23,28.66Zm.32,1.12s-.09.11-.08.14h0S48.59,29.79,48.55,29.78Zm4.38-6.73s.2-.25.2-.26-.1.14-.15.14S52.89,23,52.93,23.05Zm.4-.54s-.13.12-.13.13a.2.2,0,0,0,.14,0S53.38,22.51,53.33,22.51Zm-.3.16c-.07,0-.1,0-.09.15s.24,0,.25-.11S53.11,22.63,53,22.67Zm.48-.21c0-.06-.16,0-.16,0s0,0,.07,0S53.54,22.51,53.51,22.46Zm-.69.5s0,.14-.08.14,0-.14,0-.15-.08.1-.06.13-.06,0,0,0,0,.08,0,.1.13,0,.15,0,.09-.06.13-.08S52.87,22.92,52.82,23Zm-.15.37s-.07.14-.11.13,0,.05,0,.05-.06.09,0,.08A.65.65,0,0,0,52.67,23.33Zm.08-.07s-.07,0-.07,0,0,.12,0,.1.17-.18.16-.21S52.75,23.23,52.75,23.26Zm.91-.76c0-.05-.28.08-.28.12s.1,0,.12,0S53.68,22.55,53.66,22.5Zm.1-.12s-.09,0-.09,0,0,0,0,.07S53.78,22.42,53.76,22.38Zm12,1.49c-.11,0-.19.12-.15.17s.35.13.39.08S65.84,23.89,65.73,23.87Zm12.44,21c-.1,0,0,.17,0,.22s.06-.17.14-.12a.2.2,0,0,1,0,.28c-.07.09-.14.48,0,.4s.26-.35.33-.47,0-.18,0-.25-.19-.11-.14-.15.26,0,.29-.07.1.11.18,0,.14,0,.19,0,.36,0,.31.08-.06.4,0,.41.22-.24.27-.19-.08-.33,0-.21a.33.33,0,0,0,.42.06c.1-.1,0,.16.07.12s.16-.19.21-.2-.08.15,0,.14a.57.57,0,0,0,.23-.16c.06-.1,0-.21,0-.32s.11-.17.11-.3.06-.21.13-.21,0-.19.09-.23.09-.18.1-.28a.6.6,0,0,0-.08-.31c0-.12.09-.11,0-.25S81,43,81,43s-.25,0-.27.19.06.1,0,.22a3.59,3.59,0,0,1-.15.37.68.68,0,0,1-.32.35.41.41,0,0,1-.26,0c-.11,0,.08-.17,0-.18s-.17,0-.17.13-.12.15-.18.21,0,.15-.1.17,0-.07-.15-.09-.42-.18-.51,0-.35.13-.42.22A.94.94,0,0,1,78.17,44.88Zm-1.5,8.38a.59.59,0,0,0-.23.11c-.06.06,0,.14,0,.22a.88.88,0,0,1,0,.24c0,.06.11.23.11.19s.07-.27.15-.21-.19-.19-.05-.18.07-.13,0-.17.07-.05.06-.08S76.71,53.26,76.67,53.26Zm3.64,7.2c-.06-.15,0-.29-.08-.35s-.14.12-.17,0a2.72,2.72,0,0,1,0-.3.5.5,0,0,0-.12-.37c-.11-.1-.38-.18-.39-.34s.11-.31,0-.48a.74.74,0,0,1-.06-.51c0-.21-.17-.15-.25-.24s0-.82-.15-.9-.24.28-.29.42a1.61,1.61,0,0,0-.1.53c0,.19-.27.75-.49.66s-.11-.2-.26-.32a3.63,3.63,0,0,1-.47-.41c-.14-.15,0-.21,0-.36s.27-.21.28-.32-.25-.23-.37-.28a2.34,2.34,0,0,0-.48-.2c-.1,0,0,.24-.06.21s-.31-.2-.47-.1-.19.4-.31.44-.28-.33-.43-.37-.18.07-.38.17a2.74,2.74,0,0,0-.88.63c-.12.23-.12.34-.33.37s-.5,0-.7,0a1.19,1.19,0,0,0-.43.12c-.16.05-.27.22-.35.3s0-.29-.07-.19a1.37,1.37,0,0,0-.23.77c0,.21,0,.24-.08.4s0,.19,0,.39a4.9,4.9,0,0,1,.07.94c0,.22,0,.44,0,.57s-.27.11-.2.26a.65.65,0,0,0,.3.33.42.42,0,0,0,.39,0,.68.68,0,0,1,.41-.12l.4.06a1.3,1.3,0,0,0,.31.06c.1,0,.07-.09.15-.16a.82.82,0,0,1,.39-.11c.13,0,.23.08.38.06s.18-.16.38-.09A8.48,8.48,0,0,1,76,62c.2.1.2.22.27.35s0,.33.18.38.43-.51.54-.44-.29.44-.28.55.3-.17.3-.18-.11.36,0,.42.14.17.15.39a.73.73,0,0,0,.51.55c.24,0,.21.1.41,0s.18,0,.28.14.19.07.34,0a.63.63,0,0,1,.44-.11c.27,0,.41-.43.5-.7s.39-.37.52-.63a5,5,0,0,0,.42-.91,2.93,2.93,0,0,0,0-.92C80.59,60.69,80.37,60.61,80.31,60.46Zm-4.44-6.05c-.08.12.19.22.25.16S76,54.28,75.87,54.41Zm.74,2.17c-.1,0-.26-.06-.25,0s.17.1.24.09S76.7,56.6,76.61,56.58Zm5-.73s.08-.17,0-.21,0,0-.07,0,0-.07,0-.1-.25-.29-.28-.24.34.35.32.46S81.59,55.85,81.62,55.85Zm-2.87,9c-.16-.1-.25.09-.37,0s-.24-.23-.32-.18a.77.77,0,0,0,0,.54c0,.16.09.3.34.35S78.91,65,78.75,64.86Zm2.07-8.94s-.24-.1-.24,0,.27.25.4.24a.65.65,0,0,0,.31-.12c.11-.06.1,0,.13-.12s.15-.13,0-.24-.12.15-.13.17-.36.12-.33,0S80.85,55.93,80.82,55.92ZM80,55.76c-.1-.09,0-.2-.09-.28s-.14-.13-.26-.22a2.67,2.67,0,0,0-.45-.25l-.68-.35c-.17-.09-.33,0-.43.09S78,55,77.88,55a.22.22,0,0,1-.18-.18,2.17,2.17,0,0,1,0-.37c0-.12,0-.1-.17-.17s-.45-.05-.49,0,.14.05.17.11,0,.08,0,.16.31.1.36.11,0,.09,0,.09-.34-.12-.37-.07.09.31.12.36.18-.18.2-.12,0,.18.14.23.35.21.46.27.23.08.26.18.12.35.08.41-.33.11-.25.23.33,0,.44,0,.07.21.2.26a.7.7,0,0,0,.45,0c.12,0,.12-.27.25-.25a.6.6,0,0,1,.4.13c.09.11.21.32.3.44s.25.14.33.18.27.17.27.14-.09-.22-.1-.26-.1-.09-.13-.16-.22-.16-.21-.29-.1-.09-.13-.16-.06-.12,0-.19.14.11.19,0S80.13,55.85,80,55.76Zm1.68-16.28c-.07.14,0,.34-.14.47a.64.64,0,0,0,0,.43.33.33,0,0,1-.07.25c0,.09,0,.15,0,.23s0,.41,0,.43,0-.25.18-.25.1.28.15.27,0-.34,0-.46a.49.49,0,0,1,0-.4.35.35,0,0,1,.28-.29c.14,0,.17.33.21.26s-.12-.51-.1-.65,0-.23,0-.35-.09-.11-.07-.26a4.39,4.39,0,0,0,.12-.57c0-.16,0-.43-.13-.35s.09.25,0,.31,0,0-.13,0-.06.05,0,.17-.1.27-.11.4S81.77,39.34,81.71,39.48ZM76,51.37c.1.05.14-.1.06-.12S75.94,51.32,76,51.37Zm-.15,0s.11-.15.16-.16.06-.16.08-.2h0A1.06,1.06,0,0,0,75.89,51.33Zm.41-.3s-.12-.06-.12-.08,0,.15,0,.14,0,.21.06.23,0-.09,0-.08,0,.09,0,.08A.57.57,0,0,0,76.3,51Zm-.26-.3s.06.14.08.14,0-.09,0-.11-.13-.15-.14-.13,0,.13-.06.13S76,50.71,76,50.73Zm.18,0s0,.12.09.18,0,0,0,.14.13,0,.12-.16A.19.19,0,0,0,76.22,50.72Zm-.55,0c-.09.1.06.36.13.34s-.2.18-.09.23,0,.12.1.12,0-.08.06-.15S76,51.1,76,51s-.12-.24-.2-.26S75.76,50.65,75.67,50.74Zm-1.1,2.76c-.08.08,0,.15-.11.23a.19.19,0,0,0-.06.24c0,.09.14.06.1.17s-.13.24-.11.33a.17.17,0,0,0,.21.1c.05,0,0-.1,0-.15s0,0,.06-.1a1.72,1.72,0,0,0,0-.26c0-.08,0-.17.09-.14s0,.14,0,.21.13.15.08.22,0,.17.1.14a1.34,1.34,0,0,0,.18-.07s-.07-.14-.09-.19.06,0,.06-.1a.84.84,0,0,1,0-.17c0-.05-.15-.14-.09-.16a3.92,3.92,0,0,1,.43-.1c.08,0-.06-.11-.14-.09h-.16c-.09,0,0-.09-.13,0s-.3-.28-.16-.38.14,0,.26.07.22,0,.34.12.47,0,.47-.17-.22.11-.28.1a.56.56,0,0,1-.17-.09c-.06,0-.07,0-.14,0S75.09,53,75,53s-.25.1-.27.22A.38.38,0,0,1,74.57,53.5Zm.86-3.35s0,.38.14.39.08-.28,0-.33S75.43,50.13,75.43,50.15Zm-2.11,4.61c0,.05,0,.23.14.15S73.37,54.71,73.32,54.76ZM81,42.1s0,.16-.08.18-.11,0-.13.13a.7.7,0,0,0,.06.36s.08-.1.13-.07.11,0,.08,0-.18-.16-.14-.22.13.09.18.06.15-.06.18,0,.24.29.27.27.06-.16.11-.2.13-.1.18-.07.39,0,.31-.06,0-.34,0-.35-.26.08-.37-.11a3.7,3.7,0,0,1-.29-.51c-.09-.2-.1.24-.09.31s-.11.15-.11.22,0,.17-.06.19S81,42.07,81,42.1ZM51.9,28.77c0,.06.07.21.15.18s.05-.12,0-.18S51.93,28.71,51.9,28.77Zm5.36,7.62a1.11,1.11,0,0,1-.23.08c-.06,0-.16-.13-.24,0s.32.21.36.13S57.23,36.4,57.26,36.39Zm-1.78,0c.07-.06-.13-.15-.21-.11s-.26-.07-.3-.08-.1.09,0,.12S55.42,36.43,55.48,36.37Zm-3.29-7.68s0,.22.08.19.1.19.09.17,0-.22.1-.26-.12,0,0-.1,0-.24-.08-.08-.06-.1,0-.08-.07,0-.06,0A.21.21,0,0,1,52.19,28.69Zm2.46-1.14s-.29-.05-.29,0a1.49,1.49,0,0,0,0,.22S54.65,27.59,54.65,27.55Zm-3.08,7.14c0,.06,0,.12,0,.17s0,0,0,.08-.1.17,0,.24.13,0,.15-.07.1,0,.11-.16,0-.24,0-.44-.23-.09-.3,0,0-.07-.08,0S51.56,34.62,51.57,34.69Zm41.57,2.05c-.08-.05-.21-.11-.28-.07s0,.11,0,.19.3,0,.35.12.29.15.29,0S93.22,36.78,93.14,36.74ZM53.58,28.13s.17-.12.15-.16.1-.15,0-.22S53.54,28.09,53.58,28.13Zm.39-1.3c.05.05,0-.06,0-.07s0,0,0,0C53.93,26.57,53.91,26.79,54,26.83ZM51.56,34c-.06.06.06.28.14.22a.86.86,0,0,0,.06-.52s0,.1,0,.13A.73.73,0,0,1,51.56,34Zm30.52,22.2s-.06-.17-.1-.16,0,.12,0,.17,0,.07,0,.14.2.11.18,0S82.13,56.27,82.08,56.22Zm-3-11.14c.06,0,.06.16.11.09s.1,0,.13-.17-.26-.24-.39-.17a.31.31,0,0,0-.12.38C78.86,45.36,79,45.12,79.07,45.08Zm-2.8,9.44c-.1.08.06.16.12.16s0-.07.09,0,0,.1.14.08.18.19.24.14-.13-.32-.26-.33S76.38,54.44,76.27,54.52Zm8,11.35s0-.21,0-.23-.16.06-.2.14-.1.08-.16.14-.07.16-.14.23a1.28,1.28,0,0,1-.23.14l-.23.12c-.09,0-.15,0-.25.08s-.33.28-.46.42.17.15.26.23.28.22.41.1a1.56,1.56,0,0,0,.36-.41.87.87,0,0,1,.38-.31c.08,0,.06.14.09.07s0-.17.07-.25a1.62,1.62,0,0,0,.33-.29c.05-.08,0-.22,0-.26S84.28,65.9,84.26,65.87Zm-1.45,1.38c-.09-.07-.14.14-.1.14S82.91,67.31,82.81,67.25ZM85.55,65a.92.92,0,0,1-.41,0c-.12-.07,0-.34-.1-.32s-.12.17-.17,0,0-.09,0-.18-.06,0-.06-.14,0-.19-.09-.23-.16-.18-.19-.16.07.23.07.28.06-.09,0,0a1.31,1.31,0,0,0,.16.47c.06.07,0,.24,0,.34s-.22.2-.24.26.07.11.11.16.11,0,.15.1-.19.23-.18.31.22.13.3,0a1.59,1.59,0,0,0,.29-.42c0-.14.11-.09.19-.07s0,0,.06-.07S85.71,65,85.55,65ZM50.16,35.13c0,.07.1.12.12.11s.12-.05.11-.15S50.17,35.06,50.16,35.13Zm42.74.79c-.06,0,0,.21-.16.22s0,.24-.06.26-.25-.12-.32-.19-.26,0-.27-.11,0-.28-.11-.33a4.49,4.49,0,0,1-.47-.13c-.12,0,.09-.29-.09-.27s-.11.23-.16.39-.65.09-.69.13.25.2.19.34.09.36.1.46-.06.11-.12.13-.1,0-.2-.07-.13-.15-.33-.1-.69.33-.95.38-.52.35-.66.36-.23-.29-.46-.28a.71.71,0,0,0-.46.2c-.09.07.07-.25,0-.23s-.22.1-.32.08-.18-.15-.29,0a7.11,7.11,0,0,0-.52.66c-.06.12.39.11.26.26s.07.37,0,.47-.41.26-.36.47-.17.09-.24.14-.22,0-.24.13,0,.32-.17.33a.27.27,0,0,0-.26.2c0,.1-.43.64-.47.46-.15-.68-.34-2.18.55-2.6.25-.12.43-.13.59-.33a1.45,1.45,0,0,1,.56-.42c.2-.1.36-.15.44-.31s.13-.31.18-.42.25,0,.22,0a.54.54,0,0,0-.33-.1c-.11,0-.17.14-.27.24s-.45.36-.58.34.09-.47,0-.5-.26.07-.39,0a.39.39,0,0,0-.39,0,3.47,3.47,0,0,0-.65.5c-.07.12.19.19.09.27s-.15,0-.27,0a4.89,4.89,0,0,1-.59-.06c-.09,0,.26-.08.18-.13a5.35,5.35,0,0,0-.53-.25c-.12,0-.18.08-.27.09s-.1,0-.23,0a1.46,1.46,0,0,0-.51-.14c-.18,0-.31-.21-.55-.08a9.71,9.71,0,0,0-1,.7c-.25.2-.81.4-1,.53s.09.14.15.18.13.06.15.16-.06.17.08.26.23,0,.39-.08.6.34.53.62-.28.79-.39,1.11a3.4,3.4,0,0,1-.5.87,4.41,4.41,0,0,1-.64.75c-.21.17-.37.31-.53.42s-.26,0-.38,0-.06-.2-.15-.21-.11,0-.23.07-.24.11-.27.35-.63.41-.63.63.37.78.27,1.07-.07.4-.26.47a.41.41,0,0,1-.46,0c-.08-.1.1-.36.09-.5s0-.27,0-.37.09-.25,0-.27-.27-.06-.3-.19.16-.35.16-.4a.44.44,0,0,0-.24-.29c-.11-.06-.24.12-.35.11s-.25.2-.35.09.23-.38.28-.47-.15-.2-.25-.16a1.51,1.51,0,0,0-.29.13.84.84,0,0,1-.33.13c-.09,0-.25,0-.21.13s.16.28.2.44.08.19.24.14.58.09.58.26-.72.41-.76.56.23.31.24.49.18.59.16.69-.35-.26-.35-.19.34.4.34.51-.29,0-.3.15.38.12.32.31a3.17,3.17,0,0,1-.58.86,1.5,1.5,0,0,1-.78.56c-.31,0-.81,0-1,.06a2.67,2.67,0,0,1-.36,0c-.13,0-.07,0-.07.13s0,.2-.11.11,0-.21-.06-.27.13.06.09,0-.28-.32-.44-.28-.4.07-.47.2-.14.14-.11.28a2.91,2.91,0,0,0,.16.47c.06.17.19.44.27.63a1.25,1.25,0,0,1,.17.61c0,.2.09.49-.11.61a2.74,2.74,0,0,1-.94.38c-.17,0,.08-.24,0-.37a3.42,3.42,0,0,1-.26-.51,2.52,2.52,0,0,0-.49-.61c-.14-.1.13-.11,0-.2s-.21.05-.22.23-.13.3-.17.42a.5.5,0,0,0,0,.24c0,.12,0,.09.11.18s.07.4.1.56a1.85,1.85,0,0,0,.27.47,1.31,1.31,0,0,1,.19.44,2.07,2.07,0,0,1,0,.51c0,.13.15.46.07.48s-.31-.36-.39-.51a1.22,1.22,0,0,1-.15-.53,2.32,2.32,0,0,0-.09-.68c-.08-.22-.26-.49-.34-.71s.06-.38.09-.61,0-.44,0-.71a5.73,5.73,0,0,0-.15-1.26c-.08-.16-.15.13-.25.15s-.12.07-.23,0-.12-.12-.09-.27.1-.17.07-.37a2.37,2.37,0,0,0-.29-.82c-.16-.19-.19-.64-.28-.76s-.2.12-.32,0a4.6,4.6,0,0,0-.53-.17c-.1,0-.09-.08-.16,0s0,.15,0,.21l-.29.18-.72.49c-.16.1-.22,0-.36.05s-.1.17-.1.31a2.05,2.05,0,0,1,0,.49c0,.15-.13.23-.11.42a2.22,2.22,0,0,0,.16.55,1.94,1.94,0,0,1,.19.59c0,.32-.35.21-.38,0a3.12,3.12,0,0,1,0-.55.59.59,0,0,0-.13-.39s0,.27-.1.24-.24.13-.28,0c-.2-.48-.48-1.53-.63-1.93a3.44,3.44,0,0,1-.2-.62c-.05-.24,0-.22,0-.46s0-1,0-1.12-.15.18-.22.21-.1.07-.21,0a1.75,1.75,0,0,1-.34-.55c0-.06.33.07.29-.05s-.08,0-.18-.08-.28-.29-.41-.44-.07-.32-.2-.51-.63-.19-.88-.24a2.78,2.78,0,0,1-.78-.42c-.18-.11-.24-.09-.32-.26s-.08-.33-.28-.32a.81.81,0,0,1-.47-.13c-.15-.07-.17-.21-.3-.32a1,1,0,0,1-.3-.44c0-.17-.07-.35-.23-.44s-.31-.08-.39.09.1.33.19.51.31.84.39,1,0-.39.08-.32,0,.51.1.63.45.11.6.09.35-.42.41-.39,0,.46.1.54.14.19.23.26.14.06.19.16,0,.22.14.3.06.14,0,.25-.23.29-.29.33,0-.15,0-.09a.82.82,0,0,0-.09.36c0,.12,0,.12-.15.15l-.33.08c-.09,0-.05.2-.13.23s-.11-.08-.19-.07l-.24,0c-.1,0-.08.17-.2.21s-.42.09-.53.12-.05,0-.11.1-.07,0-.18,0a3.8,3.8,0,0,0-.46.05c-.13,0-.12.16-.27.13s-.22,0-.25-.23-.08-.46-.12-.73a4.17,4.17,0,0,0-.37-1,.86.86,0,0,0-.29-.37c-.14-.13-.09-.36-.12-.54a3.35,3.35,0,0,0-.19-.56c-.07-.16-.13-.15-.2-.32s-.26-.57-.31-.75a.56.56,0,0,0-.22-.34c-.08-.06.08-.39,0-.4s-.05.45-.14.45-.28-.67-.35-.63.06.43.16.64.3.8.39,1,.08.46.17.62.16.17.2.32,0,.33.07.47,0,.23.07.35a3.52,3.52,0,0,1,.25.33c.09.16.16.58.23.74s.17.09.27.2.09.21.24.34a.83.83,0,0,1,.21.57.46.46,0,0,0,.35.4c.18,0,.83-.11,1-.1s.26-.1.32.07,0,.3-.1.53a3.27,3.27,0,0,1-.4.79c-.17.25-.09.31-.41.61a5.86,5.86,0,0,0-1.23,1.32c-.06.12-.53.69-.44.9a1.27,1.27,0,0,1,.11.54.58.58,0,0,0,.13.47,2.84,2.84,0,0,1,.14,1.06.74.74,0,0,1-.37.63c-.19.1-.3.07-.42.19s-.21.25-.32.36-.19.16-.14.3.18.28.18.44a1.19,1.19,0,0,1-.05.5c-.09.14-.28.12-.42.19s-.11.17-.13.33.06.27,0,.46a6.37,6.37,0,0,1-.53.75,2.55,2.55,0,0,1-.37.32c-.14.11-.11.2-.32.25s-.72.13-.93.17-.3.07-.46.08-.16-.13-.29-.22a.42.42,0,0,1-.15-.4c0-.16-.08-.22-.14-.37s-.17-.4-.23-.55-.18-.17-.27-.29,0-.23-.08-.4-.07-.42-.11-.64a2.74,2.74,0,0,0-.33-.74c-.1-.19-.2-.32-.27-.49s0-.08,0-.32a2.88,2.88,0,0,1,.21-1,1.22,1.22,0,0,0,0-.88c-.09-.31-.2-.81-.26-1.06s-.14-.2-.24-.36-.27-.35-.36-.5,0-.17,0-.35,0-.51.06-.69a.48.48,0,0,0-.08-.39c-.09-.14-.15-.19-.31-.15s-.3.15-.46.06-.19-.3-.39-.37-.68.16-.86.27-.37.28-.53.38a.51.51,0,0,1-.36.07.73.73,0,0,0-.41,0c-.16.08-.41.27-.56.33s-.14,0-.3-.08L47,46.05a1,1,0,0,1-.51-.43c-.16-.26-.56-.9-.69-1.14a3.23,3.23,0,0,1-.25-.41c-.06-.17.08-.28.11-.44s.17-.33.14-.53-.1-.43-.13-.63-.15-.35-.11-.56,0-.09.17-.4.52-1.19.68-1.55a2.51,2.51,0,0,1,.63-.8c.21-.2.19-.13.25-.37s.05-.49.11-.76.54-.49.63-.71.12-.51.28-.57.17.22.31.16.17-.1.27-.09.09.14.21.07.25-.23.42-.35a4.37,4.37,0,0,1,.83-.43c.18,0,.18-.08.29-.08s.13.07.22,0,.13-.12.22-.14a.44.44,0,0,1,.21,0,1,1,0,0,0,.47-.13c.11-.09.35-.07.37.05s-.11.35,0,.51-.24.3-.19.42a.6.6,0,0,0,.37.32,6.24,6.24,0,0,1,.68.18c.18.08.15.28.31.38s.28,0,.44.18a.23.23,0,0,0,.41-.09c.06-.17-.07-.15,0-.26s0-.18.14-.25a.78.78,0,0,1,.52-.06c.11,0,0,.13.08.16l.31.07c.1,0,.08.1.13.17s.05-.07.15,0l.48.16a.43.43,0,0,0,.37,0c.17-.07.19-.11.39,0a.41.41,0,0,0,.64-.17,2.23,2.23,0,0,0,.24-1c-.07-.24.08-.34,0-.47s-.08,0-.14,0S57.37,36,57.3,36s-.09.15-.16.17a.48.48,0,0,1-.23,0c-.1,0-.22-.2-.31-.24s-.14-.09-.19,0,0,.15-.15.13-.2-.15-.38-.28a1.24,1.24,0,0,1-.27-.89c.06-.16-.14.1-.15,0a.3.3,0,0,1,.32-.27.62.62,0,0,0,.44-.05c.07-.07-.17-.07-.13-.15s.21,0,.31,0,.2,0,.29-.08.19-.15.3-.12.3,0,.36.07,0,.13.1.16.06,0,.15.09a1.39,1.39,0,0,0,.36.2c.12.06.22,0,.35,0a.41.41,0,0,0,.38-.09c.11-.1.05-.29,0-.41s-.24-.22-.32-.34a1.47,1.47,0,0,0-.34-.39.52.52,0,0,1-.17-.15,1,1,0,0,1-.17-.2s0,0,0-.08.17.13.14,0,.09-.25.17-.24-.18-.18-.15-.23.15.08.15,0,.12,0,.15-.1,0-.07-.15-.08a.56.56,0,0,0-.35.11c0,.05,0,0,0,0s-.24.1-.31.14.09-.06,0,0-.06.2,0,.32.28,0,.31.13-.2,0-.26.06-.39.26-.39.1-.15-.28-.18-.34.3-.15.15-.24-.13,0-.22-.06-.14-.14-.16-.14.26,0,.2,0-.27-.14-.36-.08a.76.76,0,0,0-.23.33c0,.11,0,.2,0,.28s-.13,0-.15.12,0,.34-.15.45-.08.32,0,.45.25.2.24.32-.21-.06-.29,0-.23.33-.3.32.1-.18.1-.2-.13-.06-.19-.08a1.07,1.07,0,0,0-.27-.06.17.17,0,0,0-.16.06c-.06,0,0,.07,0,.16s-.17-.07-.22-.05,0,.23.07.32,0,.2,0,.27.28.33.23.38-.2-.12-.2,0,.13.11,0,.19,0,.2,0,.24-.15,0-.19-.11,0,0-.15,0,0-.41,0-.47-.21-.09-.24-.24a.9.9,0,0,0-.17-.39.69.69,0,0,1-.07-.49c0-.18,0-.21-.16-.35a1.91,1.91,0,0,0-.55-.44c-.16,0-.16-.2-.21-.28s-.09-.4-.18-.36-.12.11-.16-.07,0-.1-.15-.06a.19.19,0,0,0-.14.27c0,.12-.07.22,0,.31s.21.11.28.22,0,.26.13.35.11.19.26.2.06,0,.13.12.58.48.48.6-.19-.3-.28-.19a.3.3,0,0,0-.1.22c0,.12,0,0,.09.16s-.06.15-.1.29-.13.25-.22.2-.1.25-.07.34-.1.19-.2.07-.49-.29-.36-.41.28.07.39,0,.2,0,.27-.08,0-.1.08-.18,0-.39-.1-.44-.14,0-.13-.11-.07-.09-.13-.12-.08-.23-.22-.21-.16-.08-.28-.19-.36-.26-.4-.44-.07-.26-.21-.31-.16-.08-.26,0-.37.46-.54.49-.31-.1-.45-.09-.18.15-.25.26.08.26,0,.38-.18.15-.34.27a2,2,0,0,0-.44.7c-.06.17.12.18,0,.31a1.39,1.39,0,0,0-.17.35c0,.09-.15,0-.19.12s0,.19-.15.24a2.51,2.51,0,0,1-.45.07c-.15,0-.17.2-.33.27s-.15-.24-.17-.27-.22-.07-.29,0a1.26,1.26,0,0,1-.31.09s0-.23,0-.3,0-.1,0-.18,0,.07-.08,0a.56.56,0,0,1,0-.38c0-.14.15-.47.08-.62s0-.43,0-.48-.13-.06-.09-.18.17-.09.23-.14-.07,0,0-.07.2,0,.33,0a1,1,0,0,1,.41-.06c.15,0,.24,0,.38,0s.17.08.35,0,.21-.63.2-.83,0-.28-.14-.33-.07-.24-.11-.28L49,32.44s-.12,0-.17,0-.11-.1-.18-.07a.14.14,0,0,1-.15-.06s.08,0,.07-.05-.15-.09-.08-.15.18,0,.3-.12.09.08.18.06.24-.07.26-.16-.09-.26-.07-.32.13,0,.14,0,0,.09.09.09a.56.56,0,0,0,.3-.09s-.1,0-.06,0a.92.92,0,0,1,.29-.24c.1-.08,0-.24.07-.34s.23-.14.31-.21a.64.64,0,0,1,.28-.09s-.15,0-.14-.06.08,0,.13-.08,0-.06,0-.13a1.43,1.43,0,0,0,.12-.35c0-.09.09,0,.15-.13s.29-.13.37-.16,0-.08.05-.11.08,0,.12,0,.17.05.18,0,.12-.11.14-.12-.16-.11-.08-.19,0-.11,0-.2,0-.2-.06-.28,0-.13-.06-.25,0-.43.19-.43.36-.32.35-.27a1.12,1.12,0,0,0,0,.53c.07.11-.3.36-.25.58s.22.3.34.28-.12.12,0,.17.29-.17.38-.2.16.09.19.15.12.17.17.18,0-.08,0-.1-.15,0-.09,0,.34,0,.43-.17.39-.26.51-.12-.08-.11-.07,0,.19.19.26.09,0-.12.06-.17,0,0,.08,0,.09-.14.13-.13-.16.1,0,.15.09-.41,0-.54,0-.17.05-.28,0-.16.1-.28.28.24.39.29.13-.15.12-.22,0-.25,0-.31,0,.05-.08,0-.08-.08-.09-.13-.12-.2,0-.27a.6.6,0,0,1,.44-.12l.36.1c.12,0,.05,0,.11-.1s.16,0,.21,0,.21.09.21,0-.25-.24-.33-.26.12-.1,0-.1-.75.09-.9.11-.14.07-.22,0-.09-.17-.2-.23-.12-.12-.12-.24a.8.8,0,0,0,0-.31,1.24,1.24,0,0,1-.11-.36c0-.12.1-.15.16-.26s.24-.24.3-.34.1-.22.19-.28.17.05.12-.11a.44.44,0,0,0-.35-.33.34.34,0,0,0-.41.15c-.12.17-.07.2,0,.42s-.35.4-.53.6a1.06,1.06,0,0,0-.14.91c.12.22.29.18.35.36s-.09.21-.19.33-.22.23-.23.43a4.2,4.2,0,0,1-.06.61c0,.19-.21.23-.34.27s0,.12-.08.19,0,.07-.13.07-.13,0-.14-.11a.74.74,0,0,1,0-.3c0-.14-.14-.37-.21-.47s0-.14,0-.22a1.61,1.61,0,0,1-.09-.26c0-.07,0-.23,0-.24s-.07-.26-.1-.22-.09.28-.21.36-.15.23-.31.33-.55.16-.6-.13a9.71,9.71,0,0,1-.15-1A.67.67,0,0,1,51,26a1.46,1.46,0,0,1,.33-.29c.14-.12.27-.18.36-.34s.13-.19.26-.39a6.77,6.77,0,0,0,.37-.85,6.36,6.36,0,0,1,.49-.78,1.81,1.81,0,0,1,.59-.64,8.52,8.52,0,0,1,.86-.32c.2-.08.19-.24.3-.31s.33-.09.36,0-.31.36-.22.43.27-.3.32-.32,0,.21,0,.2.13-.19.19-.23a.22.22,0,0,1,.22,0c0,.05-.16.1-.08.2s.07-.16.18-.12a2.52,2.52,0,0,1,.42.24c.11.07-.08.14-.15.16s-.3-.09-.32-.07.16.14.19.2.13,0,.21,0a.42.42,0,0,0,.31,0c.07-.05.21,0,.23.14s-.19-.09-.19,0,.27.22.47.22.38.18.55.31a4.83,4.83,0,0,0,.58.43,1,1,0,0,1,.43.46c.06.18,0,.23-.05.34s0,.14-.2.17a.9.9,0,0,1-.54-.11c-.24-.1-.92-.52-1.08-.61s.43.43.4.6a.87.87,0,0,0,.15.66c.14.13.39.37.56.34s0-.19-.05-.23-.24-.14-.19-.25.24,0,.35,0,.4.29.47.28-.18-.33-.1-.4a3.84,3.84,0,0,1,.35-.18c.09-.05.16-.12.26-.08s.31.23.39.21.06-.19.07-.26-.12-.2-.13-.27a1.73,1.73,0,0,1,.09-.34c0-.08-.18-.25-.13-.25a2.37,2.37,0,0,1,.46.2.62.62,0,0,1,.25.37c0,.06-.29-.14-.34,0s0,.24.13.35.19.11.33.12.07-.14.14-.21.13,0,.24,0a2.05,2.05,0,0,1,.46-.06c.17,0,.58-.14.7-.06s.1.28.27.33.2-.13.35-.08a1.14,1.14,0,0,0,.44.11.6.6,0,0,1,.41.11c.09.07-.16.05-.06.13s.17.13.35,0-.14-.28,0-.37.79.22,1,.38a7.15,7.15,0,0,0,.6.47c.16.11.32.43.39.45s.14-.24.07-.34-.32-.36-.41-.5.06-.24.14-.35-.27-.24-.22-.31.34-.12.48-.19.15-.3.28-.41.84.23.9.37-.2.29-.23.44.08.27.12.46-.27.68-.16.85.29.24.21.4-.11.27-.25.33-.38.06-.49.12-.37-.22-.35-.14.44.48.66.45a1.26,1.26,0,0,0,.68-.31c.16-.16-.08-.51.16-.53s.26,0,.37.06.2.42.26.41,0-.29-.07-.39a.66.66,0,0,0-.35-.21c-.13,0-.37,0-.44-.11a.44.44,0,0,1,0-.4c.06-.11.22-.22.16-.36s-.24-.34-.15-.47.27-.08.42-.09,0-.34,0-.35.25.23.14.34-.09.25,0,.42a1.7,1.7,0,0,0,.76.43s-.44-.32-.56-.48.12-.22.34-.2a1.52,1.52,0,0,1,.67.34,2.88,2.88,0,0,1,.25.25c.07.08.23.13.27.08s0-.25-.06-.33-.26-.13-.33-.19-.18-.52,0-.56a5.75,5.75,0,0,1,1,.23c.21,0,.41.13.58.14s.08-.1.12-.24,0-.25.24-.26.21-.1.49-.08a7.17,7.17,0,0,1,1,.17,11,11,0,0,0,1.73.23c.34,0,.08-.2.29-.24s.34,0,.55-.08a.76.76,0,0,1,.66.33c0,.14-.47-.06-.43,0s.61.27.66.35-.32.12-.29.17a1.18,1.18,0,0,0,.38.16s0-.26.08-.23l.33.12a1.25,1.25,0,0,1,.46.23,3.68,3.68,0,0,1,.43.49c.07.12.13.19.12.28a.34.34,0,0,1-.14.2c-.74.2-1.49.32-2.22.51.45,0,1,.1,1.43.1.1,0-.38-.13-.28-.17a.43.43,0,0,1,.52.09,1,1,0,0,0,.61.36,7,7,0,0,1,1.12.48c.15.1-.25,0-.18.08a.94.94,0,0,0,.33.29,4.48,4.48,0,0,0,.46.12c.12,0,.31.18.38,0s.09-.22.26-.16a2.3,2.3,0,0,0,.45.14c.16,0,.32,0,.45.06a1.13,1.13,0,0,1,.26.45c.06.14-.11.28-.12.4s-.1.34,0,.46a2.28,2.28,0,0,0,.38.38c.12.07.25-.18.36-.26s.16-.12.27,0a.49.49,0,0,0,.37.23c.15,0,.28,0,.39,0s.21.27.34.27a1.47,1.47,0,0,0,.45,0c.07,0-.16-.27,0-.33s.12-.26.31-.21.58.27.81.37.4.24.61.36a5,5,0,0,1,.68.39c.18.16.19.54.44.61a7.54,7.54,0,0,0,.83.06,2.09,2.09,0,0,1,.62.29c.17.09.16.08.22.22s-.11.22,0,.34a1,1,0,0,0,.59.27,3,3,0,0,1,.7.16c.16.06.19.13.33.09s.15,0,.24.07.14.31.25.38a.39.39,0,0,0,.33,0c.11,0-.12-.5.07-.51a9.73,9.73,0,0,1,1.09.3,2.69,2.69,0,0,1,.8.54c.25.19.62.5.82.68s.22.21.24.41.09.36.22.36-.09-.26,0-.27a1.12,1.12,0,0,1,.55.18,1,1,0,0,1,.34.4c0,.1-.23.15-.31.19S93,35.88,92.9,35.92Zm-31.5-.5c-.06-.09,0-.1-.1-.25s-.15.24-.2.24S61,35,61,34.93s-.23-.17-.27-.26-.05-.35-.06-.37-.2-.2-.14-.22.2.15.22.09-.13-.15-.07-.22.1-.06.18,0a1.84,1.84,0,0,1,.4.2s-.16.23-.12.21a.77.77,0,0,0,.22-.17c.07-.06-.21-.16-.25-.22s.07-.24,0-.31-.06-.28-.17-.23-.18-.07-.27-.14-.12.06-.25,0-.17,0-.2.12-.17.06-.26.09a.18.18,0,0,0-.13.2c0,.1-.16.11-.12.18s.22.18.2.34a2.07,2.07,0,0,0,.11.55c0,.15.19.22.22.35s.25.35.25.41-.16,0-.16.14-.06.17-.08.27a1.2,1.2,0,0,0,0,.33c0,.11.06.14.15.19s.1.14.19.2a2.75,2.75,0,0,0,.28.19c.1,0,.37.14.43.06s-.06-.37,0-.51-.11-.29-.14-.36.08,0,.07,0a.53.53,0,0,0,0-.17s-.08,0-.13-.07,0-.24,0-.24.34.2.4.13S61.46,35.51,61.4,35.42ZM21.71,26.35s.28,0,.29-.05,0-.05-.07-.05S21.69,26.3,21.71,26.35Zm9.07,21.29c0,.1.19.1.25.1s.18-.09.2-.1,0,0-.06-.09S30.78,47.53,30.78,47.64Zm-1-9.15s0,0,0,0,0,0,0,0a.12.12,0,0,0,0-.15s0,.06,0,0-.09-.06-.14,0-.17,0-.18.06,0,0,.06,0S29.78,38.53,29.82,38.49Zm-.46-.12s-.06,0-.06,0,0,0,0,0S29.37,38.39,29.36,38.37Zm.11.11s0,0,0,0-.06,0-.07,0,0,0,0,0S29.46,38.49,29.47,38.48Zm6.59-3.91c0-.07.18-.23.07-.25s-.42.32-.46.55a3.45,3.45,0,0,1-.41.84.37.37,0,0,0,0,.37c.06.09.19,0,.3,0a1.31,1.31,0,0,1,.63-.09c.07,0-.17.17-.07.2s.35-.35.41-.31,0,.2.11.19.14,0,.21-.14a1,1,0,0,0,0-.53c0-.12-.15,0-.15-.15s0-.16-.1-.23-.37.17-.42.17,0-.16-.05-.18-.1,0-.13-.06S36,34.64,36.06,34.57ZM33.42,46.91c.08.18.33-.13.34-.17s0,0,0,0S33.35,46.73,33.42,46.91Zm-2,0a.8.8,0,0,0,.28-.18c0-.05-.15-.1-.21-.1s0-.11-.15-.09a.4.4,0,0,1-.37-.12s0,0,0,0a1.6,1.6,0,0,0-.88-.22,1.29,1.29,0,0,0-.54.23c-.13.07-.33.33-.28.38s.58-.53.68-.41-.12,0-.08.08a.12.12,0,0,0,.17,0c.06,0,.07,0,.17,0s.27,0,.39,0,.18.19.28.2.15,0,.18,0-.17.19-.12.21A1.82,1.82,0,0,0,31.42,47Zm2.67-10.24c-.07.1.07.25.23.26a.28.28,0,0,0,.27-.21s-.35.06-.42.07S34.15,36.62,34.09,36.71ZM34,35.64c0,.1.59.25.6.08S34.05,35.54,34,35.64ZM41.17,52a.89.89,0,0,1-.1.69c-.15.29-.45.89-.59,1.2s-.19.25-.22.6,0,1.11-.06,1.51A3.16,3.16,0,0,1,39.77,57c-.12.25-.07.27-.24.39s-.3,0-.48.18-.63.63-.79.84,0,.42,0,.61.08.15-.05.4-.44.83-.62,1.11a9.2,9.2,0,0,1-.55.86c-.18.21-.69-.19-.81-.08s.34.23.38.35.13.21.12.35-.09.17-.17.32-.35.26-.51.35-.44,0-.51.1.09.21,0,.32.07.14,0,.29-.44.05-.54.06,0,.29,0,.37.17.17.13.3-.11.34-.15.47-.11.14-.23.19a.36.36,0,0,0-.18.28c0,.11.13.2.2.26s.24,0,.23.12a.65.65,0,0,1-.11.29,1,1,0,0,0-.19.32c0,.14-.09.17-.22.29s.08.53.13.66,0,.15.11.24.27.14.38.25.56,0,.56.09A3.88,3.88,0,0,1,35,68c-.15.08-.23.07-.43,0s-.64-.18-.86-.29-.15-.1-.31-.36a2.11,2.11,0,0,1-.49-1c0-.47,0-1.16,0-1.72s0-1.23,0-1.83.12-1.6.16-2.13.08-1,.1-1.33a4.07,4.07,0,0,0,.05-.61,2,2,0,0,0-.12-.49c0-.17,0-.31-.11-.45s-.23-.1-.39-.18-.37-.15-.56-.26-.22-.16-.39-.41l-.74-1.08c-.2-.3-.46-.63-.62-.91s0-.65.06-.89a1.23,1.23,0,0,1,.1-.55,3.71,3.71,0,0,1,.31-.58,2.19,2.19,0,0,0,.33-1.09c-.05-.24,0-.18,0-.28s0-.11,0-.25-.24-.22-.23-.37,0-.18-.1-.23-.11,0-.19.05a1.08,1.08,0,0,0-.18.23c-.06.09.12.07.06.2s-.19,0-.23,0-.25,0-.32-.07-.06.1-.12,0l-.18-.12c-.1-.06-.32-.13-.41-.27s0-.25-.14-.41-.37-.46-.64-.47-.6,0-.8-.12a5.83,5.83,0,0,0-.48-.5c-.17-.13-.19,0-.39.1a1.26,1.26,0,0,1-.79-.16c-.21-.1-.48-.16-.64-.23s-.14,0-.27-.11l-.42-.44c-.13-.14,0-.29,0-.47s-.17-.38-.25-.52a1.79,1.79,0,0,0-.22-.34c-.1-.13-.33-.39-.42-.5s0-.13,0-.22,0-.09-.1-.2a3,3,0,0,0-.31-.44.86.86,0,0,1-.27-.36c0-.15-.06-.51-.16-.59s-.34-.29-.37-.22a1.52,1.52,0,0,0,.16.67,3.73,3.73,0,0,1,.35.65.82.82,0,0,0,.19.32,1.09,1.09,0,0,1,.13.34,1.34,1.34,0,0,1,.09.37c0,.15.05.06.13.11a.41.41,0,0,1,.15.28c0,.1-.08.21-.15,0a2.73,2.73,0,0,0-.41-.49c-.11-.12,0-.26-.05-.38a.62.62,0,0,0-.2-.25c-.06-.07-.14-.05-.18-.12s-.24-.19-.19-.24.25-.08.14-.25a1.35,1.35,0,0,0-.3-.4c-.14-.12-.12-.24-.18-.42s-.15-.44-.24-.65a1,1,0,0,0-.54-.46c-.19-.06-.2,0-.3-.2s-.15-.34-.26-.56a4.68,4.68,0,0,1-.45-.74A3.36,3.36,0,0,1,20.22,41c0-.33,0-.75,0-1a7,7,0,0,0-.17-.85c0-.16.42.21.47.09a.6.6,0,0,0-.16-.48,2.71,2.71,0,0,0-.4-.35,2,2,0,0,0-.41-.15.68.68,0,0,1-.38-.37c-.11-.22-.52-.5-.51-.76s-.09-.37-.24-.42-.13.29-.26.13-.16-.37-.32-.47a.86.86,0,0,1-.31-.29,2.8,2.8,0,0,0-.33-.49,3.46,3.46,0,0,0-.4-.27,4.43,4.43,0,0,0-.83-.38c-.21,0-.25.08-.42.05s-.27-.16-.42-.24a.47.47,0,0,0-.4-.1c-.18,0-.19.1-.16.3s-.56.46-.7.45.07-.11,0-.15-.07-.33,0-.41a1.13,1.13,0,0,1,.4-.14c.06,0-.1-.08-.11-.1s.2-.13.1-.11a1.64,1.64,0,0,0-.6.36,2,2,0,0,0-.37.62c0,.15.23-.07.16.09a2.85,2.85,0,0,1-.6.68c-.18.15-.48.23-.54.47s-.52.34-.67.39a.55.55,0,0,1-.2,0c-.09,0-.05.07-.11.11s-.3.19-.32.09.29-.15.36-.29.42-.27.51-.3.33-.36.43-.36.17-.31.22-.38,0-.21.1-.25.11-.18,0-.15-.39.26-.52.16-.17-.14-.28-.14-.19.17-.27.13-.08-.47-.15-.52-.2.24-.31.18a.88.88,0,0,1-.34-.24,1.18,1.18,0,0,1-.14-.45c0-.14,0-.18.09-.31s.1-.23.26-.24.19-.14.32-.2.25,0,.31-.15-.09-.19-.13-.26.14,0,.09-.11-.19,0-.29.08-.14,0-.3.05-.61,0-.68-.12.11,0,.05-.08-.38,0-.36-.16.39-.22.47-.25-.08,0,0-.06.32-.23.4-.13a.43.43,0,0,0,.34.17.36.36,0,0,0,.28-.14c0-.06-.14,0-.15-.07s.1,0,0,0,0-.11,0-.15-.31,0-.41,0-.14-.21-.25-.25-.39-.08-.45-.17,0-.18.05-.25,0,0,.11,0,.29,0,.38-.13a2.54,2.54,0,0,1,.26-.42,1.86,1.86,0,0,1,.68-.4.84.84,0,0,0,.44-.19c.16-.13.16-.14.39-.08s.6-.09.79.12.53.09.79.1l.83,0c.31,0,.87.08,1.18.09s.56.21.78.22.23-.29.34-.38.2.14.32.07.73-.5.79-.39-.62.38-.56.43.67-.33.75-.28.13-.22.19-.24-.08-.17,0-.15.46.47.56.45.13-.41.23-.42,0,.17.07.19-.06.17,0,.18a.75.75,0,0,0,.27-.13c.05-.05-.05-.11,0-.13a.45.45,0,0,1,.15-.06,1.47,1.47,0,0,1,.53.1,6.22,6.22,0,0,0,.94.07c.16,0-.1-.06,0-.07a.81.81,0,0,1,.47.15c.15.11-.3.29-.26.33a.71.71,0,0,0,.41,0l.66-.2c.16,0,.28-.09.38,0s.28.39.33.43-.05-.16,0-.2,0-.07,0-.14-.09-.21,0-.3.49-.3.4-.37-.5.36-.59.25.17-.25.29-.33a.43.43,0,0,1,.39-.06c.12.06.07.14.13.21s.06.05.18.05l.43.06c.16,0,.7,0,.79-.16s.11-.33.27-.37a.75.75,0,0,1,.41,0c.06,0-.09.29-.05.34s.26.18.24.1-.08-.43.11-.49.19-.19.26-.28a.16.16,0,0,0,0-.22c0-.05-.14.23-.19.12s.18-.25.24-.34-.16,0-.25,0-.32,0-.4-.09a1.55,1.55,0,0,1-.09-.51c0-.18.11-.19.23-.24s-.12-.08-.09-.1a.35.35,0,0,0,.14-.3.94.94,0,0,0-.11-.36c-.07-.12,0-.24,0-.38s.28,0,.2-.14.2-.29.4-.28.56-.17.65-.05-.28.53-.31.64-.63.17-.54.16c.29,0-.1.43,0,.49s.37.09.36.31.3.24.32.35-.3.24-.27.31.21,0,.27,0a.28.28,0,0,1,.28,0c0,.05-.16.11-.12.15s.16.11.12.21,0,.25.07.23.1-.24.12-.32,0-.26.13-.24.22,0,.28.13a.25.25,0,0,1,0,.32c-.09.08.07-.21-.05,0s.34.61.42.37,0-.14.07-.27.14,0,.12-.2.13-.27.18-.38-.17-.18-.11-.33.11-.15.24-.16.3-.1.4,0,.25.08.31.13,0,.22,0,.31-.24.05-.25.12a.57.57,0,0,0,.21.31.24.24,0,0,1,0,.34,2.82,2.82,0,0,1-.36.33c-.1.11-.22-.08-.25-.08s.13.23.11.25-.15-.05-.18-.05,0,.07,0,.08h-.19c-.06,0,0-.12-.07-.12s-.26.07-.27.15.18,0,.17.09a.82.82,0,0,1-.21.35.32.32,0,0,1-.35,0,1.26,1.26,0,0,0-.66,0c0,.06.41.1.51.16s.43-.1.47,0-.14.41-.21.49a.56.56,0,0,1-.2.14c-.08,0-.13,0-.22.08a.52.52,0,0,1-.42.19,2.07,2.07,0,0,0-.42,0l.26.06s-.08.09,0,.07a.37.37,0,0,1,.3,0c.09,0,.16.1.07.2s-.22.09-.33.15-.07.11-.15.26a2.49,2.49,0,0,0-.31.72,4.87,4.87,0,0,0-.12.83c0,.15.28-.08.37.06a1.73,1.73,0,0,1,.18.5c.06.18.16.09.3,0s.16,0,.33,0a2.65,2.65,0,0,1,.73.26c.15.09.21.18.34.19s.32,0,.43,0,.28-.15.32,0,0,.43,0,.67a1,1,0,0,0,.45.65c.23.15.46-.33.46-.52s-.1-.4-.09-.57-.24-.14-.17-.3.5-.42.6-.64a.93.93,0,0,0,0-.8c-.15-.15-.19-.13-.3-.26s-.12-.16,0-.3a.37.37,0,0,0,.11-.39c0-.17-.11-.23-.07-.39a1.16,1.16,0,0,0,0-.49c0-.16,0-.21.18-.27s.52,0,.68-.13.22-.05.34,0,.23,0,.28.16.14.2.26.16.26,0,.3,0-.11.21-.06.31,0,.3,0,.34.08,0,.08,0-.27.44-.1.28.64.18.81-.26c0,0,.06.07.1,0a1,1,0,0,0,.13-.46c0-.13.11-.36.21-.36s-.14.15,0,.17.43.42.51.59.25.29.26.43-.11.2-.09.29.1.06.15.1.16.06.2.11,0,.18.08.15a.86.86,0,0,1,.42,0c.14.06.23.12.09.21s-.33.16-.36.23.24-.15.22-.1a1.21,1.21,0,0,1-.32.24c-.08,0-.07.25,0,.18a.51.51,0,0,1,.14-.15c.06-.05,0-.06.08-.11a1.31,1.31,0,0,1,.28-.18s-.12,0-.08,0a.2.2,0,0,1,.23,0c0,.05-.06.23,0,.19s.18-.17.31-.1,0,.22,0,.33.06.21,0,.32a.86.86,0,0,1-.28.29c-.11.07-.2.05-.32.14a1.45,1.45,0,0,0-.25.31.84.84,0,0,1-.56.37,7.1,7.1,0,0,0-.76.2.66.66,0,0,0-.52.41c-.06.21-.2.16-.3.28a2.48,2.48,0,0,0-.26.4c-.06.11-.41.66-.36.61s.55-.66.72-.88.76-.55.9-.36-.13-.06,0,0-.07.23-.14.31-.26,0-.28.1.12.07.15.1.17-.11.2-.06-.1.22-.12.27.11-.1.1,0,.08.28.24.27-.06,0,0,0A.52.52,0,0,0,34.6,37c.08-.06,0,.1,0,.07s.11,0,.09-.08.05-.46.2-.52,0,.28,0,.27.24,0,.15.1a.92.92,0,0,1-.34.21c-.08,0,.11,0,0,.09s-.32.25-.41.32a.61.61,0,0,0-.17.14c-.07.07-.06-.06-.14,0s-.2.37-.28.44-.09.11-.2,0,.21-.53.33-.62,0,0,.1,0,.22-.12.19-.16-.24.09-.28.09.11-.17,0-.17-.28.21-.32.29-.1,0-.13.08-.15,0-.16.1-.29.29-.38.36,0-.09-.06,0a1.17,1.17,0,0,1-.24.27c-.11.07,0,.12-.13.25s-.15.62,0,.58,0-.06,0-.06.08,0,.06.07-.2.07-.29.07,0,.16-.11.19a1.6,1.6,0,0,0-.49.32s.32-.21.35-.21,0,0,0,.05.12-.05.1,0a1.26,1.26,0,0,1-.25.19c-.06,0-.35.1-.26.16s-.14.58-.19.62-.11-.26-.14-.2.15.28.09.42-.07.37-.19.49,0,0,0,0,.07-.2.06-.28-.08-.1-.12-.11.05-.26,0-.28.12-.23,0-.14-.11.41-.08.49-.16-.08-.15,0,.15.05.18.12-.05.2,0,.29.11.07.11.18-.17.2-.18.21.23-.06.2.06-.19.11-.23.15.07,0,.06,0-.09,0-.1.09.16,0,.16,0-.1.09-.14.13-.07,0-.13,0a3,3,0,0,0-.15.31c-.05.09-.13.07-.2.17a1,1,0,0,1-.17.28,1.72,1.72,0,0,0-.39.64.77.77,0,0,0,.05.56c.08.2.18.49.24.69a1,1,0,0,1,0,.61c-.06.14-.12.19-.2.12a.64.64,0,0,1-.17-.16c0-.06-.06-.2-.11-.27a.61.61,0,0,1-.07-.28c0-.06,0,.12,0,0s0-.4-.06-.49-.22-.22-.34-.15-.14.12-.24.11-.13-.16-.24-.1a.68.68,0,0,1-.37,0s-.54.26-.52.23.26.06.15.16.14,0,.13.08-.05.15-.08.11-.1-.14-.16-.14,0,.17,0,.13-.09,0-.18,0-.15-.13-.26-.07-.09,0-.24,0-.23.13-.42.25a1.69,1.69,0,0,0-.56.84c0,.22.1.16.11.3s0,.1-.05.26a3.12,3.12,0,0,0-.09.56A3.3,3.3,0,0,0,26.51,48c.13.22.23.36.37.41s.08.13.17.11.16-.1.24-.14a1.28,1.28,0,0,1,.22-.09c.07,0,.09.07.14.05a.19.19,0,0,0,.1-.08s0,0,0-.12a.53.53,0,0,0,.12-.25c0-.13.05-.43.19-.52a1.43,1.43,0,0,1,.38-.17c.15-.05.32-.07.29.11a1.39,1.39,0,0,1-.18.45c0,.08.06,0,.06,0s-.06.07-.07.1,0,0,0,0,0-.05,0,0,0,.31-.07.35-.07-.17-.05-.17-.11.11-.05.14,0,.31,0,.41-.17.31-.12.37.42-.07.52-.08.12-.09.23-.1a.66.66,0,0,1,.29,0,.38.38,0,0,1,.26.39c0,.18,0,.31-.05.47s0,.07-.08.31.38.94.67.75a1.07,1.07,0,0,1,.53-.25c.23-.06.34.33.43.23a8.57,8.57,0,0,1,.4-.95,1,1,0,0,1,.34-.27c.17-.1.31-.25.51-.36s.33-.06.62-.08S33.9,49,34.2,49s.38-.12.65,0,.67.52.95.7.61,0,.9,0,.43.37.59.54.33.39.46.51,0,.17.22.22.67,0,1,.07l1,.07a2.83,2.83,0,0,1,.78.37c.17.08.27-.17.36,0S41.11,51.72,41.17,52ZM30.49,39.27a1.07,1.07,0,0,1-.42.29.34.34,0,0,0-.26.18c-.06.08-.15.2-.22.16s.11-.17.11-.18,0-.1-.06-.07a1.56,1.56,0,0,0-.17.37s.1,0,.14,0-.1.06,0,.05a1.41,1.41,0,0,0,.47-.3,3.6,3.6,0,0,0,.44-.42C30.57,39.3,30.52,39.22,30.49,39.27Zm.29-.19c.22,0,.45-.27.37-.37s.18-.2.11-.19-.23.27-.39.31-.28,0-.44.24S30.56,39.09,30.78,39.08Zm-3.31-.5c0,.08.22-.09.26-.1s-.1.07,0,.07.58-.44.66-.42-.19.23-.13.25.14-.09.21,0,.11,0,.2.06.35-.23.39-.2.07.09.14.08.13.16.1.15-.12.06-.19.07a.68.68,0,0,0-.4.21s0,0,0,0,0-.07,0-.07l-.08.08s0-.11,0-.06-.25.42-.21.51.17-.31.19-.26a2.42,2.42,0,0,1-.09.38,1.49,1.49,0,0,0-.08.48c0,.22.14.67.28.33a1.08,1.08,0,0,0,0-.7,1,1,0,0,1,.18-.52c.05-.11,0,.18,0,.11s.12-.18.14-.28.08-.15.19-.08.18.08.21.15-.06,0,0,0a.33.33,0,0,1,0,.29c-.05.06-.13.14-.1.21s.16-.14.24-.16.1.33.12.33a1.28,1.28,0,0,0,.15-.24c0-.06,0-.14,0-.24a.48.48,0,0,0,0-.37c0-.07.12,0,.13,0s0,.08,0,.08,0,.06,0,0,.2,0,.21,0,.07,0,.06-.1-.13-.35-.27-.35-.37,0-.49,0-.33,0-.35-.1,0-.08,0-.13.07-.08,0-.13,0-.18-.09-.19-.28-.06-.32-.21-.15,0-.2,0-.23-.06-.22,0,0,.18-.07.2.06-.14,0-.13-.08.18-.12.19.06-.11,0-.08-.08.16-.14.23-.24.15-.31.23S27.46,38.5,27.47,38.58ZM21.3,31.72s-.07,0-.08,0,.1-.08.05-.08-.19.17-.27.2-.26.1-.32,0,.29-.21.24-.26a.51.51,0,0,0-.4.07,2.67,2.67,0,0,1-.36.22,3.29,3.29,0,0,1-.39.17c-.14,0-.25.14-.16.2s0,0,.08,0,0,0,0,0a.84.84,0,0,1,.37-.07c.07,0-.06,0,0,0s.35-.07.39,0-.29.08-.31.1.1.06.1.11-.17,0-.12.12-.11.13-.12.16a1.16,1.16,0,0,0,.29,0c.08,0,.13-.16.21-.23s.23,0,.15,0a.3.3,0,0,0-.09.14c0,.05-.15,0-.09.07s.33-.22.41-.28-.15-.06-.1-.11.45-.1.47-.17-.07,0-.07,0,.07-.09.09-.13A.45.45,0,0,0,21.3,31.72Zm2,1.23c-.07,0-.43,0-.51.12s-.08.13-.14.23a.41.41,0,0,1-.22.17.29.29,0,0,1-.31-.07c-.07-.07-.18,0-.23,0s-.16-.09-.2,0,.16,0,.19.09.17.24.08.27-.11,0-.15.06,0,.1-.08.14,0,0,0,0-.14,0-.19,0,0,0,0,0-.22-.06-.18,0,.34.11.48.1.37-.1.4-.23.22-.13.29-.2a1.21,1.21,0,0,0,.19-.23c0-.05-.06,0,0,0a.64.64,0,0,1,.2-.2c.07,0,.18-.07.19-.1s-.1.05-.1,0,.15-.07.14-.08-.12,0-.13,0,.15,0,.09,0-.36.28-.38.21.48-.34.52-.2S23.39,33,23.32,33Zm2.73,4s0-.1.06-.1,0,.08,0,.08,0,0,0,0,.05.19.05.2.06-.12.1-.08,0,.15,0,.18.09-.1.06,0a.47.47,0,0,0-.05.33c.05.1.08-.07.09-.1s.06,0,.05,0,0-.18,0-.26a.65.65,0,0,1-.14-.29,4.87,4.87,0,0,1-.18-.73s0,0,0,0-.06.08-.08.06S26,36,26,36s0-.06-.05,0,0,.23,0,.26-.19-.09-.25.1.09.18.1.23,0,.33.13.37S26,37,26.05,37ZM10.7,35.3a.58.58,0,0,0-.34.07s.22.14.26.11a.35.35,0,0,1,.13,0s0,0,0,0S10.74,35.32,10.7,35.3Zm8.71-5.9c.09,0,.26,0,.37.18a.22.22,0,0,0,.36,0c.09-.09.05,0,.11-.09s0,.06.06,0,.16-.07.2-.15,0-.27,0-.34.19-.07.24-.19,0-.09.16-.18a2.66,2.66,0,0,0,.6-.41c.11-.13.08-.15,0-.22a1.36,1.36,0,0,0-.27-.13.59.59,0,0,0-.51.12c-.08.09.09-.12,0-.06s-.41-.1-.58-.05a4.18,4.18,0,0,0-.66.24c-.1.07.27.22.15.32s-.13.3-.16.39-.07.13-.09.24-.18.24-.12.32S19.32,29.35,19.41,29.4Zm.79-2.23c.11,0,0-.06.09-.14s.12.08.15.11.15-.07.18-.11-.08-.17,0-.2.09.12.17,0,0-.12,0-.15.16-.07.13-.14.16-.13.11,0,0,.28.17.21.3-.29.2-.37.21,0,.07-.06,0-.16.07-.23-.31-.07-.35,0,.09,0,.06.05-.14,0-.22,0-.11,0-.22.07a.9.9,0,0,0-.33.27c-.1.11-.19.34-.35.38s-.28.21-.16.29S20.09,27.16,20.2,27.17Zm1.74-1.49c0-.06-.29-.07-.31,0s.17.1.18.1S22,25.75,21.94,25.68ZM13.58,35.87c0,.06.17,0,.18-.08s0,0,0,0,0,0,0-.05-.11-.06-.14,0S13.55,35.82,13.58,35.87Zm4.79,1.31c0-.12-.23-.17-.29,0s.36.75.45.66-.08,0-.09-.13S18.37,37.29,18.37,37.18Zm-5-1.15a.18.18,0,0,0,0,.33c.16,0,.08-.13.19-.12s.09-.1.12-.13.11,0,.09-.07,0,.09-.06,0S13.52,36,13.39,36Zm6.82,2.81c-.06-.1-.1-.05-.17-.1a.22.22,0,0,1-.13-.16c0-.11-.25-.2-.35-.23s-.4-.16-.35-.06a2.48,2.48,0,0,0,.9.75C20.39,39.18,20.27,38.94,20.21,38.84ZM60.53,50.37c-.05-.12-.21-.33-.23-.14a.42.42,0,0,1-.19.31,1.29,1.29,0,0,1-.28.25,2.3,2.3,0,0,1-.42.14c-.12.06-.12.24-.11.36a1.78,1.78,0,0,1,.11.48c0,.15-.16.27-.21.41a.7.7,0,0,0,0,.45c0,.14,0,.34.09.46a.32.32,0,0,0,.33.15c.1,0,.21,0,.31-.11a2.84,2.84,0,0,0,.11-.36c.07-.2.25-1,.34-1.2a2.46,2.46,0,0,0,.07-.66c0-.13,0,.17.11.07a1,1,0,0,0-.05-.58C60.5,50.31,60.54,50.38,60.53,50.37Zm14.89-1c-.06.05,0,.27,0,.37s.19.16.14.21a.19.19,0,0,0,.06.26c.11,0,.11,0,.18.08s0,.15.09.17,0-.16.07-.14.11.14.11.21a.18.18,0,0,0,.14.17c.06,0-.07-.23,0-.22s.15,0,.09-.07,0,0-.09,0a.81.81,0,0,1-.12-.14.65.65,0,0,0-.12-.11c-.05,0,0,.07-.12,0s0-.16-.07-.26,0-.17.06-.26.06,0,.1,0,0-.07.06-.14a.54.54,0,0,0,0-.28c0-.08.11-.19,0-.23a1.13,1.13,0,0,1-.21-.15c-.06-.07-.13-.07-.17,0s-.08.31-.11.39,0,.17,0,.21S75.47,49.28,75.42,49.33Zm.64-2c.06-.11.17-.45,0-.43s-.27.21-.33.34,0,.52.11.54S76,47.41,76.06,47.3Zm-.94,3.27s-.14.28-.23.32-.35.2-.32.26.37-.08.39-.19.18-.08.2-.1,0-.18,0-.21S75.14,50.52,75.12,50.57Zm1.32,1s0-.16-.1-.15,0,.17,0,.16,0,0-.09,0-.08.06-.1.06l-.22,0s.08-.14,0-.17,0,.12-.15.1-.28.17-.22.2.18-.18.2-.06,0-.06.06,0,0,.07,0,.08-.07-.1,0-.07.06.19,0,.32.13.18.22.17h0c0,.15.1.1.09,0s0-.23.07-.23,0,.23,0,.24,0-.11,0-.13,0,.05,0,0,.11-.26.07-.3,0-.05,0-.08,0,0,0,0,0,0,0,0A.1.1,0,0,0,76.44,51.57Zm-2,4c0-.16-.31-.29-.32-.18S74.5,55.71,74.47,55.56ZM73.86,55c-.07-.05-.12-.12-.18-.14s-.22,0-.14.09a.85.85,0,0,0,.54.19c.24,0,0-.22-.11-.2S73.93,55.08,73.86,55Zm.86.38s0,0,.1,0,.14,0,.21,0,.41.17.43.1-.29-.1-.36-.14-.12,0-.19,0,0-.06-.15-.06-.26-.19-.37-.13.13.18.19.19A.39.39,0,0,1,74.72,55.41Zm.29-.8a.18.18,0,0,0,.1.15s.11-.06.07-.14,0,0,.06-.08-.09,0-.1,0S75,54.53,75,54.61Zm-2.53-2.28c0,.06,0,.14,0,.19s0,0,0,.07a.25.25,0,0,0,0,.12s0,0,0,.1,0-.07.09,0a1.05,1.05,0,0,1,0,.44c0,.13.24.1.3.11s-.07.16,0,.15a.4.4,0,0,1,.36.09c.07.09.09,0,.15.06s0,.15,0,.18.27,0,.29,0,0,.16,0,.1,0-.28.09-.38.06-.14.18-.18.15-.14.17-.24,0-.22.17-.17.18,0,.11-.08-.09-.1-.11-.17,0,0,0-.12a.92.92,0,0,1,0-.37c0-.11.22,0,.25,0s-.07-.11,0-.14.19,0,.21,0,0-.08-.1-.11-.06-.1-.1-.16-.11-.26-.22-.27-.22.13-.3.19-.06.16-.18.15a.38.38,0,0,0-.29.09c-.09.08-.13.16-.26.16s-.19,0-.31,0,0,.19-.07.24-.3-.24-.31-.29-.12,0-.14,0A1.49,1.49,0,0,0,72.48,52.33Zm2.81,3.52s.09-.09.17-.09.42,0,.43-.1-.23,0-.28-.07a.32.32,0,0,0-.14,0s0,0-.07.06-.21,0-.26,0a.27.27,0,0,0-.07.17S75.25,55.89,75.29,55.85ZM32.06,47.33c.08,0,.14-.08.2-.06s0,.2.12.14,0-.19.09-.26,0,0,.12,0,.26-.14.35-.16.13,0,.16-.09-.05-.11-.13-.11a.17.17,0,0,1-.18-.1c0-.09-.07,0-.13,0a.3.3,0,0,0-.21,0,.48.48,0,0,1-.17.1c-.07,0-.35.08-.35.14s.25.18.21.28-.52.08-.45.2S32,47.33,32.06,47.33Zm13.74-21c.15,0,.17-.19.21-.25s.23-.1.2-.2a.94.94,0,0,0-.07-.22c0-.1-.21.09-.26,0s-.38-.29-.43-.09-.33.09-.39.14.06.19,0,.18-.11-.15-.22-.12-.1.17-.1.2-.2-.18-.2-.08,0,.13-.08.19-.06.22-.09.24-.15-.16-.15-.18.12,0,.09-.12-.08,0-.15-.06-.24-.15-.29,0,.12,0,.15.06-.19.05-.28.12.07.08.05.14-.12,0-.14,0,0,.06,0,.07-.14,0-.09.07.27-.06.34-.11a.37.37,0,0,1,.29,0s-.17.11-.16.14.16,0,.17,0,0,0,0,.05-.46.12-.5.22.4-.05.4,0,0,.1.06.08,0,.05,0,.06.06,0,.06,0S44,27,44,27s.33-.15.43-.16.05.08.12.1.12,0,.21,0a.64.64,0,0,0,.33-.1c.07-.06,0-.09.12-.13a1.2,1.2,0,0,0,.21-.09C45.55,26.54,45.65,26.32,45.8,26.32Zm-1.74-2.63c0-.2-.16-.25-.12-.48a3.08,3.08,0,0,1,.3-.9c.13-.21.28-.37.36-.53s-.06-.28-.07-.42A.62.62,0,0,0,44.4,21c-.1-.09-.36-.07-.38-.2s.51-.52.47-.65-.36-.13-.4-.35.11-.42.22-.59a2,2,0,0,1,.43-.44,2.77,2.77,0,0,0,.41-.46c.07-.11-.19,0-.11-.11s.41-.12.51-.23.56-.34.54-.43-.5-.11-.66-.13a.92.92,0,0,0-.61.18c-.1.12-.1.22-.24.24a2.86,2.86,0,0,1-.42,0c-.16,0-.53.34-.58.36s.26-.52.07-.49-.42.1-.49,0,.76-.33.62-.4a3.71,3.71,0,0,0-1.4-.17,9.27,9.27,0,0,0-1.67.26l-.65.2c-.2.07-.18,0-.3.11s-.07.28-.24.3-.32,0-.51.05a1.38,1.38,0,0,0-.63.11,6.79,6.79,0,0,0-.77.56c-.07.09.79.28.64.35s-1-.07-1.35,0a2.31,2.31,0,0,0-.56.2l-1,.4c-.26.11-.33.07-.55.23a7.44,7.44,0,0,0-.59.48,9.84,9.84,0,0,0-1.31,1.09c-.11.16.55,0,.56,0a2.23,2.23,0,0,1-.12.43c-.05.12-.07.14-.24.19a4.55,4.55,0,0,0-.61.28c-.19.12-.64.35-.79.45s-.07.19-.09.29.08.11.16.2.17.27.32.33l.49.17c.15,0,.24.17.42.13s.34-.14.56-.22a5,5,0,0,1,.93-.16,3.49,3.49,0,0,1,.53,0c.18,0,.18.17.34.32a3.71,3.71,0,0,1,.53.82c.11.2.11.24.07.4s-.15.33,0,.45.29.17.27.36-.12.34,0,.49.25.09.39,0,.41-.28.48-.27,0,.3,0,.38-.13.09-.2.16a2.39,2.39,0,0,0-.33.25c-.06.09,0,.09,0,.24a1.42,1.42,0,0,0,0,.66c.08.22.18.43.28.69a4.71,4.71,0,0,0,.62.89c.17.2.28.39.41.53s.21.06.37.07a2.51,2.51,0,0,0,.61.05c.15,0,.25.1.36-.14s.25-1,.35-1.32.21-.8.29-1.05.05-.19.22-.32.44-.27.61-.38a3.35,3.35,0,0,0,.44-.29,3.15,3.15,0,0,0,.33-.53c.1-.15.08-.19.26-.3l.58-.32a4.4,4.4,0,0,0,.85-.49c.23-.22.68-.6.88-.81S44.09,23.89,44.06,23.69Zm29.22,24s.16,0,.17,0a.2.2,0,0,1,.13-.16s0-.15,0-.18,0,.1,0,0-.33-.13-.42,0,0,.22,0,.3.06.07.12.11S73.23,47.72,73.28,47.72Zm-1.75,5.86c.06,0,0-.35.16-.5s-.18-.35-.23-.33,0-.12,0-.18,0-.2,0-.26-.15-.09-.15-.18.08-.09.07-.17-.12-.14-.12-.23,0-.12-.09-.19,0-.1-.09-.16-.11-.05-.16-.18-.19-.3-.26-.44a2.94,2.94,0,0,1-.25-.46c-.05-.15-.09-.31-.2-.38s-.26-.32-.34-.25.08.4.15.51.22.27.21.44.17.31.19.45,0,.24,0,.36,0,0,.11.18a5,5,0,0,1,.13.63,1.82,1.82,0,0,0,.18.47,6.2,6.2,0,0,0,.43.82c.09.1,0-.1.06-.07S71.47,53.63,71.53,53.58Zm.61-.57c-.08-.1-.15.08-.08.15S72.22,53.11,72.14,53Zm1,1.56c-.16,0-.16-.18-.2-.24s-.24-.06-.28-.16-.08-.05-.13,0,0,0-.13,0a.58.58,0,0,1-.31-.23.49.49,0,0,0-.25-.18.33.33,0,0,1-.16,0c-.07,0,0,0-.13,0s0,.19.11.22-.06,0,0,.06.25.19.33.24.14,0,.21,0a.83.83,0,0,1,.18.13,1.16,1.16,0,0,0,.16.11l.13.06s0,0,.08,0a1.6,1.6,0,0,0,.3.13c.07,0,.19.21.21.16S73.27,54.56,73.1,54.57Zm-1.53-1.94c0,.07.06.06.09.08a.61.61,0,0,1,0,.12.79.79,0,0,1,0,.13s.11.11.1.09.06-.07,0-.11a1.89,1.89,0,0,0-.16-.36s0,.1,0,0A.07.07,0,0,0,71.57,52.63Z"/><polygon class="cls-5" points="103.03 102.01 52.84 72.63 3.86 101.17 52.35 131.12 103.03 102.01"/><path class="cls-6" d="M39.55,107.28a8.06,8.06,0,0,1-3.21.61,7.53,7.53,0,0,1-2.82-.51,6.29,6.29,0,0,1-3.61-3.56,7.12,7.12,0,0,1-.51-2.72v0a6.73,6.73,0,0,1,.52-2.65,6.93,6.93,0,0,1,1.44-2.16,6.6,6.6,0,0,1,2.19-1.47,7,7,0,0,1,2.77-.54,9.87,9.87,0,0,1,1.61.12,7.39,7.39,0,0,1,1.35.35,6.33,6.33,0,0,1,1.17.57,7.63,7.63,0,0,1,1,.77l-1.82,2.2a8.65,8.65,0,0,0-.76-.56,5.86,5.86,0,0,0-.78-.42,4.53,4.53,0,0,0-.88-.26,5.49,5.49,0,0,0-1-.09,3.34,3.34,0,0,0-1.48.33,3.92,3.92,0,0,0-1.21.88,4,4,0,0,0-.81,1.31,4.23,4.23,0,0,0-.29,1.59v0a4.6,4.6,0,0,0,.29,1.68,4,4,0,0,0,.83,1.33,3.82,3.82,0,0,0,1.26.88,4.16,4.16,0,0,0,1.61.31,4.6,4.6,0,0,0,2.74-.8v-1.9H36.24v-2.51H42v5.73A9.68,9.68,0,0,1,39.55,107.28Z"/><path class="cls-6" d="M45.37,107.66V94.46h2.9v13.2Z"/><path class="cls-6" d="M63.69,103.67a6.07,6.07,0,0,1-1.44,2.09A6.8,6.8,0,0,1,60,107.15a7.67,7.67,0,0,1-2.84.51H52V94.46h5.15A7.88,7.88,0,0,1,60,95a6.8,6.8,0,0,1,2.22,1.39,6.12,6.12,0,0,1,1.44,2.08,6.59,6.59,0,0,1,.51,2.6v0A6.67,6.67,0,0,1,63.69,103.67Zm-2.52-2.61a4.42,4.42,0,0,0-.29-1.6,3.76,3.76,0,0,0-.82-1.26,3.49,3.49,0,0,0-1.25-.82,4.25,4.25,0,0,0-1.62-.3H55v8h2.24a4.45,4.45,0,0,0,1.62-.28,3.47,3.47,0,0,0,1.25-.81,3.82,3.82,0,0,0,.82-1.25,4.26,4.26,0,0,0,.29-1.6Z"/><path class="cls-6" d="M75.33,107.66l-1.21-3H68.54l-1.2,3h-3L70,94.37h2.68l5.65,13.29Zm-4-9.8-1.75,4.28h3.51Z"/></svg>