<?xml version="1.0" encoding="utf-8"?>
<!-- Generator: Adobe Illustrator 23.0.6, SVG Export Plug-In . SVG Version: 6.00 Build 0)  -->
<svg version="1.1" id="Layer_1" xmlns="http://www.w3.org/2000/svg" xmlns:xlink="http://www.w3.org/1999/xlink" x="0px" y="0px"
	 viewBox="0 0 825.1 825.1" style="enable-background:new 0 0 825.1 825.1;" xml:space="preserve">
<style type="text/css">
	.st0{fill:#5482b0;}
</style>
<path class="st0" d="M757.1,300.3H524.8V67.9c0-37.5-30.4-67.9-67.9-67.9h-88.6c-37.5,0-67.9,30.4-67.9,67.9v232.3H67.9
	C30.4,300.3,0,330.7,0,368.2v88.6c0,37.5,30.4,67.9,67.9,67.9h232.3v232.3c0,37.5,30.4,67.9,67.9,67.9h88.6
	c37.5,0,67.9-30.4,67.9-67.9V524.8h232.3c37.5,0,67.9-30.4,67.9-67.9v-88.6C825.1,330.7,794.7,300.3,757.1,300.3z"/>
</svg>
