<?xml version="1.0" encoding="utf-8"?>
<svg xmlns="http://www.w3.org/2000/svg" xmlns:xlink="http://www.w3.org/1999/xlink" style="margin: auto; background: none; display: block; shape-rendering: auto;" width="147px" height="147px" viewBox="0 0 100 100" preserveAspectRatio="xMidYMid">
<g transform="rotate(0 50 50)">
  <rect x="48" y="26" rx="2" ry="5.28" width="4" height="12" fill="#52a8e6">
    <animate attributeName="opacity" values="1;0" keyTimes="0;1" dur="1.7857142857142856s" begin="-1.6741071428571428s" repeatCount="indefinite"></animate>
  </rect>
</g><g transform="rotate(22.5 50 50)">
  <rect x="48" y="26" rx="2" ry="5.28" width="4" height="12" fill="#52a8e6">
    <animate attributeName="opacity" values="1;0" keyTimes="0;1" dur="1.7857142857142856s" begin="-1.5624999999999998s" repeatCount="indefinite"></animate>
  </rect>
</g><g transform="rotate(45 50 50)">
  <rect x="48" y="26" rx="2" ry="5.28" width="4" height="12" fill="#52a8e6">
    <animate attributeName="opacity" values="1;0" keyTimes="0;1" dur="1.7857142857142856s" begin="-1.450892857142857s" repeatCount="indefinite"></animate>
  </rect>
</g><g transform="rotate(67.5 50 50)">
  <rect x="48" y="26" rx="2" ry="5.28" width="4" height="12" fill="#52a8e6">
    <animate attributeName="opacity" values="1;0" keyTimes="0;1" dur="1.7857142857142856s" begin="-1.3392857142857142s" repeatCount="indefinite"></animate>
  </rect>
</g><g transform="rotate(90 50 50)">
  <rect x="48" y="26" rx="2" ry="5.28" width="4" height="12" fill="#52a8e6">
    <animate attributeName="opacity" values="1;0" keyTimes="0;1" dur="1.7857142857142856s" begin="-1.2276785714285714s" repeatCount="indefinite"></animate>
  </rect>
</g><g transform="rotate(112.5 50 50)">
  <rect x="48" y="26" rx="2" ry="5.28" width="4" height="12" fill="#52a8e6">
    <animate attributeName="opacity" values="1;0" keyTimes="0;1" dur="1.7857142857142856s" begin="-1.1160714285714284s" repeatCount="indefinite"></animate>
  </rect>
</g><g transform="rotate(135 50 50)">
  <rect x="48" y="26" rx="2" ry="5.28" width="4" height="12" fill="#52a8e6">
    <animate attributeName="opacity" values="1;0" keyTimes="0;1" dur="1.7857142857142856s" begin="-1.0044642857142856s" repeatCount="indefinite"></animate>
  </rect>
</g><g transform="rotate(157.5 50 50)">
  <rect x="48" y="26" rx="2" ry="5.28" width="4" height="12" fill="#52a8e6">
    <animate attributeName="opacity" values="1;0" keyTimes="0;1" dur="1.7857142857142856s" begin="-0.8928571428571428s" repeatCount="indefinite"></animate>
  </rect>
</g><g transform="rotate(180 50 50)">
  <rect x="48" y="26" rx="2" ry="5.28" width="4" height="12" fill="#52a8e6">
    <animate attributeName="opacity" values="1;0" keyTimes="0;1" dur="1.7857142857142856s" begin="-0.7812499999999999s" repeatCount="indefinite"></animate>
  </rect>
</g><g transform="rotate(202.5 50 50)">
  <rect x="48" y="26" rx="2" ry="5.28" width="4" height="12" fill="#52a8e6">
    <animate attributeName="opacity" values="1;0" keyTimes="0;1" dur="1.7857142857142856s" begin="-0.6696428571428571s" repeatCount="indefinite"></animate>
  </rect>
</g><g transform="rotate(225 50 50)">
  <rect x="48" y="26" rx="2" ry="5.28" width="4" height="12" fill="#52a8e6">
    <animate attributeName="opacity" values="1;0" keyTimes="0;1" dur="1.7857142857142856s" begin="-0.5580357142857142s" repeatCount="indefinite"></animate>
  </rect>
</g><g transform="rotate(247.5 50 50)">
  <rect x="48" y="26" rx="2" ry="5.28" width="4" height="12" fill="#52a8e6">
    <animate attributeName="opacity" values="1;0" keyTimes="0;1" dur="1.7857142857142856s" begin="-0.4464285714285714s" repeatCount="indefinite"></animate>
  </rect>
</g><g transform="rotate(270 50 50)">
  <rect x="48" y="26" rx="2" ry="5.28" width="4" height="12" fill="#52a8e6">
    <animate attributeName="opacity" values="1;0" keyTimes="0;1" dur="1.7857142857142856s" begin="-0.33482142857142855s" repeatCount="indefinite"></animate>
  </rect>
</g><g transform="rotate(292.5 50 50)">
  <rect x="48" y="26" rx="2" ry="5.28" width="4" height="12" fill="#52a8e6">
    <animate attributeName="opacity" values="1;0" keyTimes="0;1" dur="1.7857142857142856s" begin="-0.2232142857142857s" repeatCount="indefinite"></animate>
  </rect>
</g><g transform="rotate(315 50 50)">
  <rect x="48" y="26" rx="2" ry="5.28" width="4" height="12" fill="#52a8e6">
    <animate attributeName="opacity" values="1;0" keyTimes="0;1" dur="1.7857142857142856s" begin="-0.11160714285714285s" repeatCount="indefinite"></animate>
  </rect>
</g><g transform="rotate(337.5 50 50)">
  <rect x="48" y="26" rx="2" ry="5.28" width="4" height="12" fill="#52a8e6">
    <animate attributeName="opacity" values="1;0" keyTimes="0;1" dur="1.7857142857142856s" begin="0s" repeatCount="indefinite"></animate>
  </rect>
</g>
<!-- [ldio] generated by https://loading.io/ --></svg>