<svg width="92" height="43" viewBox="0 0 92 43" fill="none" xmlns="http://www.w3.org/2000/svg">
<path d="M46.9885 20.2288L35.8066 1.95607C35.4432 1.36215 34.797 1 34.1007 1H6C3.23858 1 1 3.23858 1 6V21.2727V36.5455C1 39.3069 3.23858 41.5455 6 41.5455H34.1007C34.797 41.5455 35.4432 41.1833 35.8066 40.5894L46.9885 22.3167C47.3805 21.6759 47.3806 20.8695 46.9885 20.2288Z" fill="#5E7154" stroke="white" stroke-width="2"/>
<path d="M25.0347 25.6066C25.0347 26.7866 24.6034 27.7591 23.7408 28.524C22.8782 29.289 21.6331 29.761 20.0055 29.9401V32.589H18.3819V30.0133C16.3637 29.9808 14.7076 29.6715 13.4137 29.0856V26.5099C14.1135 26.8517 14.9314 27.1406 15.8673 27.3766C16.8031 27.6045 17.6414 27.7225 18.3819 27.7306V23.1652L17.3565 22.7867C16.0219 22.274 15.0453 21.6637 14.4268 20.9557C13.8165 20.2395 13.5113 19.3566 13.5113 18.3068C13.5113 17.1837 13.9467 16.2601 14.8175 15.5358C15.6964 14.8115 16.8845 14.372 18.3819 14.2174V12.1666H20.0055V14.1808C21.6575 14.2378 23.224 14.5714 24.7052 15.1818L23.814 17.4156C22.5364 16.9111 21.2668 16.61 20.0055 16.5123V20.9557L20.9332 21.3097C22.4794 21.9038 23.5496 22.5304 24.1436 23.1896C24.7377 23.8488 25.0347 24.6544 25.0347 25.6066ZM22.1539 25.7897C22.1539 25.3177 21.9871 24.9311 21.6534 24.63C21.3279 24.3208 20.7786 24.0237 20.0055 23.7389V27.6329C21.4377 27.4132 22.1539 26.7988 22.1539 25.7897ZM16.38 18.2823C16.38 18.7462 16.5224 19.1328 16.8072 19.442C17.1002 19.7513 17.6251 20.0564 18.3819 20.3575V16.5612C17.7309 16.6588 17.2345 16.8582 16.8927 17.1593C16.5509 17.4604 16.38 17.8348 16.38 18.2823Z" fill="white"/>
<path d="M55.4277 20.7582L44.4815 2.5145C44.0815 1.84797 44.5616 1 45.3389 1H85.2C87.9615 1 90.2 3.23858 90.2 6V36.5455C90.2 39.3069 87.9615 41.5455 85.2 41.5455H45.3389C44.5616 41.5455 44.0815 40.6975 44.4815 40.031L55.4277 21.7872C55.6177 21.4705 55.6177 21.0749 55.4277 20.7582Z" fill="#5E3E78" stroke="white" stroke-width="2"/>
<path d="M78.7574 25.6066C78.7574 26.7866 78.3261 27.7591 77.4635 28.524C76.6008 29.289 75.3557 29.761 73.7281 29.9401V32.589H72.1046V30.0133C70.0863 29.9808 68.4303 29.6715 67.1363 29.0856V26.5099C67.8362 26.8517 68.6541 27.1406 69.5899 27.3766C70.5258 27.6045 71.364 27.7225 72.1046 27.7306V23.1652L71.0792 22.7867C69.7445 22.274 68.768 21.6637 68.1495 20.9557C67.5391 20.2395 67.234 19.3566 67.234 18.3068C67.234 17.1837 67.6693 16.2601 68.5401 15.5358C69.419 14.8115 70.6072 14.372 72.1046 14.2174V12.1666H73.7281V14.1808C75.3801 14.2378 76.9467 14.5714 78.4278 15.1818L77.5367 17.4156C76.259 16.9111 74.9895 16.61 73.7281 16.5123V20.9557L74.6558 21.3097C76.2021 21.9038 77.2722 22.5304 77.8663 23.1896C78.4604 23.8488 78.7574 24.6544 78.7574 25.6066ZM75.8765 25.7897C75.8765 25.3177 75.7097 24.9311 75.3761 24.63C75.0505 24.3208 74.5012 24.0237 73.7281 23.7389V27.6329C75.1604 27.4132 75.8765 26.7988 75.8765 25.7897ZM70.1026 18.2823C70.1026 18.7462 70.245 19.1328 70.5299 19.442C70.8228 19.7513 71.3477 20.0564 72.1046 20.3575V16.5612C71.4535 16.6588 70.9571 16.8582 70.6153 17.1593C70.2735 17.4604 70.1026 17.8348 70.1026 18.2823Z" fill="white"/>
</svg>
