<svg width="75" height="75" viewBox="0 0 75 75" fill="none" xmlns="http://www.w3.org/2000/svg">
<path d="M71.4953 34.276C70.0935 34.276 69.0421 35.2941 68.3411 36.3122H62.3832C62.3832 32.5792 61.3318 29.1855 59.9299 26.1312L64.486 23.4163C65.8879 24.4344 67.6402 24.7738 69.0421 23.7557C71.1449 22.7376 71.4953 20.362 70.4439 18.3258C69.3925 16.2896 66.9392 15.9502 64.8364 16.9683C63.4346 17.9864 62.7336 19.6833 63.0841 21.0407L58.528 23.7557C56.4252 20.7014 53.972 18.3258 50.8178 16.2896L53.6215 11.5385C55.0234 11.8778 56.4252 11.1991 57.1262 10.181C58.1776 8.82353 57.4766 6.78733 56.0748 5.76923C54.6729 4.75113 52.5701 5.42986 51.5187 6.78733C50.8178 8.1448 51.1682 9.50226 51.8692 10.5204L49.0654 15.2715C45.9112 13.5747 42.4065 12.5566 38.5514 12.5566V7.46606C40.3037 6.78733 41.3551 5.42986 41.3551 3.73303C41.7056 1.69683 39.6028 0 37.5 0C35.3972 0 33.2944 1.69683 33.2944 4.0724C33.2944 5.76923 34.3458 7.1267 36.0981 7.80543V12.8959C32.243 13.2353 28.7383 14.2534 25.5841 15.6109L22.7804 10.8597C23.8318 9.84163 23.8318 8.48416 23.1308 7.1267C22.4299 5.76923 20.3271 5.0905 18.9252 6.1086C17.5234 7.1267 16.8224 8.82353 17.5234 10.181C18.2243 11.5385 19.6262 11.8778 21.028 11.5385L23.8318 16.2896C20.6776 18.3258 18.2243 21.0407 16.1215 24.095L11.5654 21.3801C11.9159 19.6833 11.215 17.9864 9.81308 17.3077C7.71028 16.2896 5.25701 16.629 4.20561 18.6652C3.15421 20.7014 3.50467 23.0769 5.60748 24.095C7.00935 25.1131 9.11215 24.7738 10.1636 23.7557L14.7196 26.4706C13.3178 29.5249 12.2664 32.9186 12.2664 36.6516H6.30841C5.95794 35.2941 4.55608 34.6154 3.15421 34.6154C1.40187 34.6154 0 35.9729 0 37.6697C0 39.3665 1.40187 40.724 3.15421 40.724C4.55608 40.724 5.60748 39.7059 6.30841 38.6878H12.2664C12.6168 42.4208 13.6682 45.8145 15.0701 48.5294L10.1636 51.2443C8.76168 50.2262 7.00935 49.8869 5.60748 50.905C3.50467 51.9231 3.15421 54.2986 4.20561 56.3348C5.25701 58.371 7.71028 58.7104 9.81308 57.6923C11.215 56.6742 11.9159 54.9774 11.5654 53.6199L16.472 50.5656C18.5748 53.2805 21.028 55.9955 24.1822 57.6923L21.028 62.7828C19.6262 62.4434 18.2243 63.1222 17.5234 64.1403C16.472 65.4977 17.1729 67.5339 18.5748 68.552C19.9766 69.5701 22.0794 68.8914 23.1308 67.5339C23.8318 66.1765 23.4813 64.819 22.7804 63.8009L25.9346 58.7104C29.0888 60.4072 32.5935 61.086 36.0981 61.4253V67.1946C34.3458 67.8733 33.2944 69.2308 33.2944 70.9276C33.2944 72.9638 35.0467 75 37.5 75C39.9533 75 41.7056 73.3032 41.7056 70.9276C41.7056 69.2308 40.6542 67.8733 38.9019 67.1946V61.4253C42.4065 61.086 45.9112 60.4072 49.0654 58.7104L52.2196 64.1403C51.1682 65.1584 51.1682 66.5158 51.8692 67.8733C52.9206 69.2308 54.6729 69.9095 56.4252 68.8914C58.1776 67.8733 58.528 66.1765 57.4766 64.4796C56.7757 63.1222 55.3738 62.7828 53.972 63.1222L50.8178 57.6923C53.972 55.9955 56.4252 53.2805 58.528 50.5656L63.4346 53.2805C63.0841 54.9774 63.785 56.6742 65.1869 57.3529C67.2897 58.371 69.743 57.6923 70.7944 55.9955C71.8458 53.9593 71.1449 51.5837 69.3925 50.5656C67.9907 49.5475 65.8878 49.8869 64.8364 50.905L59.9299 48.19C61.6822 45.1357 62.7336 41.7421 62.7336 38.3484H68.6916C69.0421 39.7059 70.4439 40.3846 71.8458 40.3846C73.5981 40.3846 75 39.0271 75 37.3303C75 35.6335 73.2477 34.276 71.4953 34.276Z" fill="#023F88"/>
</svg>
