<svg width="12" height="24" viewBox="0 0 12 24" fill="none" xmlns="http://www.w3.org/2000/svg">
<path d="M6.00009 7.2C7.98831 7.2 9.60009 5.58823 9.60009 3.6C9.60009 1.61178 7.98831 0 6.00009 0C4.01186 0 2.40009 1.61178 2.40009 3.6C2.40009 5.58823 4.01186 7.2 6.00009 7.2Z" fill="#125088"/>
<path d="M6 7.06668C2.66667 7.06668 0 9.73335 0 13.0667V16.6667C0 17.3334 0.533333 17.8667 1.2 17.8667H2.4V22.5333C2.4 23.2 2.93333 23.7333 3.6 23.7333H8.4C9.06667 23.7333 9.6 23.2 9.6 22.5333V17.7333H10.8C11.4667 17.7333 12 17.2 12 16.5333V12.9333C12 9.73335 9.06667 7.06668 6 7.06668Z" fill="#125088"/>
</svg>
