<svg width="49" height="43" viewBox="0 0 49 43" fill="none" xmlns="http://www.w3.org/2000/svg">
<path d="M46.9885 20.2288L35.8066 1.95607C35.4432 1.36215 34.797 1 34.1007 1H6C3.23858 1 1 3.23858 1 6V21.2727V36.5455C1 39.3069 3.23858 41.5455 6 41.5455H34.1007C34.797 41.5455 35.4432 41.1833 35.8066 40.5894L46.9885 22.3167C47.3805 21.6759 47.3806 20.8695 46.9885 20.2288Z" fill="#5E7154" stroke="white" stroke-width="2"/>
<path d="M25.0347 25.6066C25.0347 26.7866 24.6034 27.7591 23.7408 28.524C22.8782 29.289 21.6331 29.761 20.0055 29.9401V32.589H18.3819V30.0133C16.3637 29.9808 14.7076 29.6715 13.4137 29.0856V26.5099C14.1135 26.8517 14.9314 27.1406 15.8673 27.3766C16.8031 27.6045 17.6414 27.7225 18.3819 27.7306V23.1652L17.3565 22.7867C16.0219 22.274 15.0453 21.6637 14.4268 20.9557C13.8165 20.2395 13.5113 19.3566 13.5113 18.3068C13.5113 17.1837 13.9467 16.2601 14.8175 15.5358C15.6964 14.8115 16.8845 14.372 18.3819 14.2174V12.1666H20.0055V14.1808C21.6575 14.2378 23.224 14.5714 24.7052 15.1818L23.814 17.4156C22.5364 16.9111 21.2668 16.61 20.0055 16.5123V20.9557L20.9332 21.3097C22.4794 21.9038 23.5496 22.5304 24.1436 23.1896C24.7377 23.8488 25.0347 24.6544 25.0347 25.6066ZM22.1539 25.7897C22.1539 25.3177 21.9871 24.9311 21.6534 24.63C21.3279 24.3208 20.7786 24.0237 20.0055 23.7389V27.6329C21.4377 27.4132 22.1539 26.7988 22.1539 25.7897ZM16.38 18.2823C16.38 18.7462 16.5224 19.1328 16.8072 19.442C17.1002 19.7513 17.6251 20.0564 18.3819 20.3575V16.5612C17.7309 16.6588 17.2345 16.8582 16.8927 17.1593C16.5509 17.4604 16.38 17.8348 16.38 18.2823Z" fill="white"/>
</svg>
