<svg width="49" height="43" viewBox="0 0 49 43" fill="none" xmlns="http://www.w3.org/2000/svg">
<path d="M12.4277 20.7582L1.48145 2.5145C1.08154 1.84797 1.56165 1 2.33894 1H42.2C44.9615 1 47.2 3.23858 47.2 6V36.5455C47.2 39.3069 44.9615 41.5455 42.2 41.5455H2.33894C1.56165 41.5455 1.08154 40.6975 1.48145 40.031L12.4277 21.7872C12.6177 21.4705 12.6177 21.0749 12.4277 20.7582Z" fill="#5E3E78" stroke="white" stroke-width="2"/>
<path d="M35.7574 25.6066C35.7574 26.7866 35.3261 27.7591 34.4635 28.524C33.6008 29.289 32.3557 29.761 30.7281 29.9401V32.589H29.1046V30.0133C27.0863 29.9808 25.4303 29.6715 24.1363 29.0856V26.5099C24.8362 26.8517 25.6541 27.1406 26.5899 27.3766C27.5258 27.6045 28.364 27.7225 29.1046 27.7306V23.1652L28.0792 22.7867C26.7445 22.274 25.768 21.6637 25.1495 20.9557C24.5391 20.2395 24.234 19.3566 24.234 18.3068C24.234 17.1837 24.6693 16.2601 25.5401 15.5358C26.419 14.8115 27.6072 14.372 29.1046 14.2174V12.1666H30.7281V14.1808C32.3801 14.2378 33.9467 14.5714 35.4278 15.1818L34.5367 17.4156C33.259 16.9111 31.9895 16.61 30.7281 16.5123V20.9557L31.6558 21.3097C33.2021 21.9038 34.2722 22.5304 34.8663 23.1896C35.4604 23.8488 35.7574 24.6544 35.7574 25.6066ZM32.8765 25.7897C32.8765 25.3177 32.7097 24.9311 32.3761 24.63C32.0505 24.3208 31.5012 24.0237 30.7281 23.7389V27.6329C32.1604 27.4132 32.8765 26.7988 32.8765 25.7897ZM27.1026 18.2823C27.1026 18.7462 27.245 19.1328 27.5299 19.442C27.8228 19.7513 28.3477 20.0564 29.1046 20.3575V16.5612C28.4535 16.6588 27.9571 16.8582 27.6153 17.1593C27.2735 17.4604 27.1026 17.8348 27.1026 18.2823Z" fill="white"/>
</svg>
