<?xml version="1.0" encoding="utf-8"?>
<!-- Generator: Adobe Illustrator 25.0.1, SVG Export Plug-In . SVG Version: 6.00 Build 0)  -->
<svg version="1.1" id="Layer_1" xmlns="http://www.w3.org/2000/svg" xmlns:xlink="http://www.w3.org/1999/xlink" x="0px" y="0px"
	 viewBox="0 0 40 40" style="enable-background:new 0 0 40 40;" xml:space="preserve">
<style type="text/css">
	.st0{fill:#125088;}
</style>
<path class="st0" d="M35.8,12.1c0-2.6-2.1-4.7-4.7-4.7c-2.6,0-4.7,2.1-4.7,4.7c0,2.1,1.3,3.8,3.2,4.5v14.5c0,0.9-0.7,1.6-1.6,1.6
	c-0.9,0-1.6-0.7-1.6-1.6c0-2.6-2.1-4.7-4.7-4.7c-2.6,0-4.7,2.1-4.7,4.7c0,0.4-0.4,0.8-0.8,0.8c-0.4,0-0.8-0.4-0.8-0.8v-4.9
	c4.5-0.8,7.9-4.7,7.9-9.4V7.3c0-0.9-0.7-1.6-1.6-1.6h-3.2V4.2h-3.2v6.3h3.2V8.9H20v7.9c0,3.5-2.8,6.3-6.3,6.3s-6.3-2.8-6.3-6.3V8.9
	h1.6v1.6h3.2V4.2H8.9v1.6H5.8c-0.9,0-1.6,0.7-1.6,1.6v9.5c0,4.7,3.4,8.6,7.9,9.4v4.9c0,2.2,1.8,4,4,4c2.2,0,4-1.8,4-4
	c0-0.9,0.7-1.6,1.6-1.6c0.9,0,1.6,0.7,1.6,1.6c0,2.6,2.1,4.7,4.7,4.7c2.6,0,4.7-2.1,4.7-4.7V16.5C34.5,15.9,35.8,14.1,35.8,12.1z
	 M31.1,13.7c-0.9,0-1.6-0.7-1.6-1.6c0-0.9,0.7-1.6,1.6-1.6c0.9,0,1.6,0.7,1.6,1.6C32.7,13,31.9,13.7,31.1,13.7z"/>
</svg>
