<?xml version="1.0" encoding="utf-8"?>
<!-- Generator: Adobe Illustrator 25.0.1, SVG Export Plug-In . SVG Version: 6.00 Build 0)  -->
<svg version="1.1" id="Layer_1" xmlns="http://www.w3.org/2000/svg" xmlns:xlink="http://www.w3.org/1999/xlink" x="0px" y="0px"
	 viewBox="0 0 18 18" style="enable-background:new 0 0 18 18;" xml:space="preserve">
<style type="text/css">
	.st0{fill:#125088;}
</style>
<path class="st0" d="M9,0.7C4.4,0.7,0.7,4.4,0.7,9c0,4.6,3.7,8.3,8.3,8.3c4.6,0,8.3-3.7,8.3-8.3C17.3,4.4,13.6,0.7,9,0.7z M12,5.9
	c0.9,0,1.6,0.7,1.6,1.6c0,0.9-0.7,1.6-1.6,1.6c-0.9,0-1.6-0.7-1.6-1.6C10.4,6.7,11.1,5.9,12,5.9z M7,4.6c1.1,0,2,0.9,2,2s-0.9,2-2,2
	c-1.1,0-2-0.9-2-2C5,5.5,5.9,4.6,7,4.6z M7,12.2v3.1c-2-0.6-3.6-2.2-4.3-4.1C3.6,10.3,5.8,9.8,7,9.8c0.4,0,1,0.1,1.6,0.2
	C7.2,10.7,7,11.7,7,12.2z M9,15.7c-0.2,0-0.4,0-0.7,0v-3.4c0-1.2,2.4-1.8,3.7-1.8c0.9,0,2.4,0.3,3.2,1C14.2,13.9,11.8,15.7,9,15.7z"
	/>
</svg>
