<?xml version="1.0" encoding="utf-8"?>
<!-- Generator: Adobe Illustrator 25.0.1, SVG Export Plug-In . SVG Version: 6.00 Build 0)  -->
<svg version="1.1" id="Layer_1" xmlns="http://www.w3.org/2000/svg" xmlns:xlink="http://www.w3.org/1999/xlink" x="0px" y="0px"
	 viewBox="0 0 40 40" style="enable-background:new 0 0 40 40;" xml:space="preserve">
<style type="text/css">
	.st0{fill:#125088;}
</style>
<path class="st0" d="M20.6,18.2c-3.8-1-5-2-5-3.6c0-1.8,1.7-3.1,4.5-3.1c3,0,4.1,1.4,4.2,3.5H28c-0.1-2.9-1.9-5.5-5.4-6.4V5h-5v3.6
	c-3.2,0.7-5.8,2.8-5.8,6c0,3.8,3.2,5.8,7.8,6.9c4.2,1,5,2.5,5,4c0,1.1-0.8,3-4.5,3c-3.4,0-4.8-1.5-5-3.5h-3.7
	c0.2,3.6,2.9,5.7,6.1,6.4V35h5v-3.6c3.2-0.6,5.8-2.5,5.8-5.9C28.5,20.8,24.4,19.1,20.6,18.2z"/>
</svg>
