<svg width="20" height="19" viewBox="0 0 20 19" fill="none" xmlns="http://www.w3.org/2000/svg">
<path d="M17.5 2.33332H15.8333V0.666656H14.1667V4.83332H12.5V2.33332H7.50001V0.666656H5.83334V4.83332H4.16668V2.33332H2.50001C1.58001 2.33332 0.833344 3.08166 0.833344 3.99999V16.5C0.833344 17.4192 1.58001 18.1667 2.50001 18.1667H17.5C18.42 18.1667 19.1667 17.4192 19.1667 16.5V3.99999C19.1667 3.08166 18.42 2.33332 17.5 2.33332ZM6.66668 15.6667H3.33334V12.3333H6.66668V15.6667ZM6.66668 10.6667H3.33334V7.33332H6.66668V10.6667ZM11.6667 15.6667H8.33334V12.3333H11.6667V15.6667ZM11.6667 10.6667H8.33334V7.33332H11.6667V10.6667ZM16.6667 10.6667H13.3333V7.33332H16.6667V10.6667Z" fill="#125088"/>
</svg>
